<svg width="1600" height="1200" viewBox="0 0 1600 1200" fill="none" xmlns="http://www.w3.org/2000/svg">
  <rect width="1600" height="1200" rx="64" fill="#F5EBD9"/>
  <circle cx="1278" cy="218" r="158" fill="#127D73" fill-opacity="0.12"/>
  <circle cx="262" cy="972" r="210" fill="#D96F32" fill-opacity="0.12"/>
  <rect x="240" y="110" width="1120" height="980" rx="70" fill="#183E48"/>
  <rect x="302" y="180" width="996" height="840" rx="44" fill="#FFF9F1"/>
  <rect x="356" y="240" width="390" height="264" rx="30" fill="#1BB6A6"/>
  <rect x="782" y="240" width="462" height="40" rx="20" fill="#12323A"/>
  <rect x="782" y="314" width="336" height="24" rx="12" fill="#3E5A54"/>
  <rect x="782" y="364" width="404" height="24" rx="12" fill="#3E5A54" fill-opacity="0.76"/>
  <rect x="782" y="414" width="278" height="24" rx="12" fill="#3E5A54" fill-opacity="0.52"/>
  <rect x="356" y="556" width="888" height="120" rx="28" fill="#F3D8A9"/>
  <rect x="356" y="716" width="272" height="244" rx="28" fill="#12323A"/>
  <rect x="664" y="716" width="272" height="244" rx="28" fill="#E8F8F2"/>
  <rect x="972" y="716" width="272" height="244" rx="28" fill="#F4B667"/>
  <circle cx="800" cy="1052" r="16" fill="#F5EBD9"/>
</svg>
