<svg width="1600" height="1200" viewBox="0 0 1600 1200" fill="none" xmlns="http://www.w3.org/2000/svg">
  <rect width="1600" height="1200" rx="64" fill="#0F2830"/>
  <circle cx="306" cy="250" r="170" fill="#19B6A7" fill-opacity="0.18"/>
  <circle cx="1280" cy="922" r="246" fill="#F1B660" fill-opacity="0.18"/>
  <rect x="168" y="360" width="1264" height="520" rx="260" fill="#F9F3E8"/>
  <rect x="248" y="442" width="1104" height="356" rx="178" fill="#153B45"/>
  <rect x="378" y="506" width="362" height="228" rx="114" fill="#0D262D"/>
  <rect x="860" y="506" width="362" height="228" rx="114" fill="#0D262D"/>
  <circle cx="559" cy="620" r="86" fill="#1DC5B4"/>
  <circle cx="1041" cy="620" r="86" fill="#1DC5B4"/>
  <rect x="680" y="552" width="240" height="136" rx="48" fill="#F9F3E8"/>
  <rect x="724" y="596" width="152" height="18" rx="9" fill="#173A43"/>
  <rect x="744" y="636" width="112" height="18" rx="9" fill="#173A43" fill-opacity="0.7"/>
  <path d="M514 250C514 177.099 573.099 118 646 118H954C1026.9 118 1086 177.099 1086 250V250C1086 322.901 1026.9 382 954 382H646C573.099 382 514 322.901 514 250V250Z" stroke="#F9F3E8" stroke-width="22"/>
  <path d="M478 250C478 157.217 553.217 82 646 82H954C1046.78 82 1122 157.217 1122 250V250C1122 342.783 1046.78 418 954 418H646C553.217 418 478 342.783 478 250V250Z" stroke="#1DC5B4" stroke-width="10" stroke-dasharray="20 20"/>
</svg>
