<svg width="1600" height="1200" viewBox="0 0 1600 1200" fill="none" xmlns="http://www.w3.org/2000/svg">
  <rect width="1600" height="1200" rx="64" fill="#112B33"/>
  <circle cx="1190" cy="238" r="148" fill="#1DC5B4" fill-opacity="0.18"/>
  <circle cx="300" cy="972" r="232" fill="#F1B660" fill-opacity="0.16"/>
  <rect x="136" y="194" width="1328" height="812" rx="54" fill="#F9F3E8"/>
  <rect x="212" y="272" width="1176" height="656" rx="34" fill="#143843"/>
  <rect x="286" y="346" width="452" height="264" rx="30" fill="#0D262D"/>
  <path d="M352 510L448 398L518 472L606 378L676 510H352Z" fill="#1DC5B4"/>
  <rect x="792" y="344" width="500" height="34" rx="17" fill="#F9F3E8"/>
  <rect x="792" y="406" width="340" height="22" rx="11" fill="#E4F6F1"/>
  <rect x="792" y="452" width="436" height="22" rx="11" fill="#E4F6F1" fill-opacity="0.72"/>
  <rect x="792" y="498" width="284" height="22" rx="11" fill="#E4F6F1" fill-opacity="0.48"/>
  <rect x="286" y="676" width="306" height="166" rx="28" fill="#F4B667"/>
  <rect x="624" y="676" width="306" height="166" rx="28" fill="#1DC5B4"/>
  <rect x="962" y="676" width="330" height="166" rx="28" fill="#F9F3E8"/>
  <circle cx="1128" cy="759" r="42" fill="#143843"/>
  <circle cx="1226" cy="759" r="42" fill="#143843"/>
</svg>
