<svg xmlns="http://www.w3.org/2000/svg" viewBox="0 0 350 56" fill="none" role="img" aria-label="Playtivate">
  <!-- Icon mark -->
  <rect x="0" y="2.8" width="40" height="40" rx="10" fill="white" fill-opacity="0.15"/>
  <polygon points="10,14.8 22,22.8 10,30.8" fill="white" fill-opacity="0.65"/>
  <polygon points="19,14.8 31,22.8 19,30.8" fill="white"/>
  <!-- Wordmark (white) -->
  <path fill="white" d="M62.2960 41L55.4320 41L55.4320 4.6000L70.4080 4.6000Q73.8400 4.6000 76.4660 5.9780Q79.0920 7.3560 80.5740 9.8520Q82.0560 12.3480 82.0560 15.7800L82.0560 15.7800L82.0560 16.5080Q82.0560 19.8880 80.5220 22.4100Q78.9880 24.9320 76.3620 26.3100Q73.7360 27.6880 70.4080 27.6880L70.4080 27.6880L62.2960 27.6880L62.2960 41ZM62.2960 10.8400L62.2960 21.4480L69.7320 21.4480Q72.1760 21.4480 73.6840 20.0960Q75.1920 18.7440 75.1920 16.4040L75.1920 16.4040L75.1920 15.8840Q75.1920 13.5440 73.6840 12.1920Q72.1760 10.8400 69.7320 10.8400L69.7320 10.8400L62.2960 10.8400ZM110.3440 41L86.8400 41L86.8400 4.6000L93.7040 4.6000L93.7040 34.7600L110.3440 34.7600L110.3440 41ZM119.6000 41L112.5280 41L122.0960 4.6000L134.0560 4.6000L143.6240 41L136.5520 41L134.5760 32.9920L121.5760 32.9920L119.6000 41ZM127.6080 8.9160L123.1880 26.6480L132.9640 26.6480L128.5440 8.9160L127.6080 8.9160ZM160.4720 41L153.6080 41L153.6080 28.4680L141.2320 4.6000L148.8760 4.6000L156.5720 20.2000L157.5080 20.2000L165.2040 4.6000L172.8480 4.6000L160.4720 28.4680L160.4720 41ZM191.9840 41L185.1200 41L185.1200 10.8400L174.5120 10.8400L174.5120 4.6000L202.5920 4.6000L202.5920 10.8400L191.9840 10.8400L191.9840 41ZM214.1360 41L207.2720 41L207.2720 4.6000L214.1360 4.6000L214.1360 41ZM239.5120 41L227.7600 41L218.5040 4.6000L225.5760 4.6000L233.2720 36.5800L234 36.5800L241.6960 4.6000L248.7680 4.6000L239.5120 41ZM255.3200 41L248.2480 41L257.8160 4.6000L269.7760 4.6000L279.3440 41L272.2720 41L270.2960 32.9920L257.2960 32.9920L255.3200 41ZM263.3280 8.9160L258.9080 26.6480L268.6840 26.6480L264.2640 8.9160L263.3280 8.9160ZM295.6720 41L288.8080 41L288.8080 10.8400L278.2000 10.8400L278.2000 4.6000L306.2800 4.6000L306.2800 10.8400L295.6720 10.8400L295.6720 41ZM334.6720 41L310.9600 41L310.9600 4.6000L334.3600 4.6000L334.3600 10.8400L317.8240 10.8400L317.8240 19.5240L332.9040 19.5240L332.9040 25.7640L317.8240 25.7640L317.8240 34.7600L334.6720 34.7600L334.6720 41Z"/>
</svg>