<svg xmlns="http://www.w3.org/2000/svg" viewBox="0 0 350 56" fill="none" role="img" aria-label="Playtivate">
  <!-- Icon mark -->
  <rect x="0" y="2.8" width="40" height="40" rx="10" fill="#4F46E5"/>
  <polygon points="10,14.8 22,22.8 10,30.8" fill="white" fill-opacity="0.65"/>
  <polygon points="19,14.8 31,22.8 19,30.8" fill="white"/>
  <!-- PLAY (indigo) -->
  <path fill="#4F46E5" d="M62.2960 41L55.4320 41L55.4320 4.6000L70.4080 4.6000Q73.8400 4.6000 76.4660 5.9780Q79.0920 7.3560 80.5740 9.8520Q82.0560 12.3480 82.0560 15.7800L82.0560 15.7800L82.0560 16.5080Q82.0560 19.8880 80.5220 22.4100Q78.9880 24.9320 76.3620 26.3100Q73.7360 27.6880 70.4080 27.6880L70.4080 27.6880L62.2960 27.6880L62.2960 41ZM62.2960 10.8400L62.2960 21.4480L69.7320 21.4480Q72.1760 21.4480 73.6840 20.0960Q75.1920 18.7440 75.1920 16.4040L75.1920 16.4040L75.1920 15.8840Q75.1920 13.5440 73.6840 12.1920Q72.1760 10.8400 69.7320 10.8400L69.7320 10.8400L62.2960 10.8400ZM110.3440 41L86.8400 41L86.8400 4.6000L93.7040 4.6000L93.7040 34.7600L110.3440 34.7600L110.3440 41ZM119.6000 41L112.5280 41L122.0960 4.6000L134.0560 4.6000L143.6240 41L136.5520 41L134.5760 32.9920L121.5760 32.9920L119.6000 41ZM127.6080 8.9160L123.1880 26.6480L132.9640 26.6480L128.5440 8.9160L127.6080 8.9160ZM160.4720 41L153.6080 41L153.6080 28.4680L141.2320 4.6000L148.8760 4.6000L156.5720 20.2000L157.5080 20.2000L165.2040 4.6000L172.8480 4.6000L160.4720 28.4680L160.4720 41Z"/>
  <!-- TIVATE (near-black) -->
  <path fill="#0F172A" d="M195.7280 41L188.8640 41L188.8640 10.8400L178.2560 10.8400L178.2560 4.6000L206.3360 4.6000L206.3360 10.8400L195.7280 10.8400L195.7280 41ZM217.8800 41L211.0160 41L211.0160 4.6000L217.8800 4.6000L217.8800 41ZM243.2560 41L231.5040 41L222.2480 4.6000L229.3200 4.6000L237.0160 36.5800L237.7440 36.5800L245.4400 4.6000L252.5120 4.6000L243.2560 41ZM259.0640 41L251.9920 41L261.5600 4.6000L273.5200 4.6000L283.0880 41L276.0160 41L274.0400 32.9920L261.0400 32.9920L259.0640 41ZM267.0720 8.9160L262.6520 26.6480L272.4280 26.6480L268.0080 8.9160L267.0720 8.9160ZM299.4160 41L292.5520 41L292.5520 10.8400L281.9440 10.8400L281.9440 4.6000L310.0240 4.6000L310.0240 10.8400L299.4160 10.8400L299.4160 41ZM338.4160 41L314.7040 41L314.7040 4.6000L338.1040 4.6000L338.1040 10.8400L321.5680 10.8400L321.5680 19.5240L336.6480 19.5240L336.6480 25.7640L321.5680 25.7640L321.5680 34.7600L338.4160 34.7600L338.4160 41Z"/>
</svg>