<?xml version="1.0"?>
<svg xmlns="http://www.w3.org/2000/svg" width="200" height="59.60199">
<g transform="translate(-281.6875,-480.17064)">
 <g transform="matrix(2.8395606,0,0,-2.8395606,160.95137,1647.2982)">
  <g transform="matrix(0.79987682,0,0,-0.79987682,-182.796,821.78576)">
   <path d="m 310.15122,519.12662 c 0.35875,0.22875 0.87,0.40625 1.42125,0.40625 0.81625,0 1.2925,-0.4275 1.2925,-1.055 0,-0.56875 -0.3325,-0.91 -1.16625,-1.22125 -1.00625,-0.3675 -1.63125,-0.8975 -1.63125,-1.75875 0,-0.96375 0.7975,-1.685 2.0025,-1.685 0.62375,0 1.08875,0.15 1.3575,0.3025 l -0.22125,0.655 c -0.19125,-0.12 -0.60625,-0.295 -1.1675,-0.295 -0.8425,0 -1.16375,0.50625 -1.16375,0.9275 0,0.57875 0.37625,0.86125 1.22875,1.1925 1.04375,0.4125 1.57,0.9075 1.57,1.81625 0,0.95375 -0.69625,1.79 -2.15875,1.79 -0.5925,0 -1.2425,-0.185 -1.5775,-0.41 l 0.21375,-0.665 z" style="fill:#231f20" />
   <path d="m 314.8981,514.8455 c -0.30125,0 -0.50125,-0.24125 -0.50125,-0.525 0,-0.28375 0.21375,-0.5125 0.52125,-0.5125 0.315,0 0.51125,0.22875 0.51125,0.5125 0,0.28375 -0.19625,0.525 -0.52,0.525 l -0.0113,0 z m 0.42125,5.2525 -0.8025,0 0,-4.44 0.8025,0 0,4.44 z" style="fill:#231f20" />
   <path d="m 316.38522,516.86162 c 0,-0.4675 -0.006,-0.8375 -0.035,-1.20375 l 0.71625,0 0.0463,0.72625 0.0162,0 c 0.21875,-0.41125 0.73375,-0.82375 1.4675,-0.82375 0.61375,0 1.56625,0.36625 1.56625,1.88875 l 0,2.64875 -0.80125,0 0,-2.555 c 0,-0.7175 -0.27125,-1.3225 -1.03125,-1.3225 -0.52125,0 -0.9325,0.375 -1.08125,0.82375 -0.0375,0.1025 -0.0562,0.24625 -0.0562,0.37875 l 0,2.675 -0.8075,0 0,-3.23625 z" style="fill:#231f20" />
   <path d="m 325.04122,519.44737 c 0,1.025 -0.2075,1.6425 -0.6325,2.03375 -0.43875,0.39625 -1.0625,0.53375 -1.6225,0.53375 -0.53,0 -1.11875,-0.13 -1.47625,-0.365 l 0.20375,-0.6275 c 0.29375,0.1925 0.755,0.36125 1.30375,0.36125 0.82,0 1.43,-0.4325 1.43,-1.5575 l 0,-0.48625 -0.0213,0 c -0.2375,0.41 -0.72625,0.74 -1.40875,0.74 -1.105,0 -1.8925,-0.9375 -1.8925,-2.17125 0,-1.505 0.98125,-2.34875 2.00875,-2.34875 0.77375,0 1.18375,0.395 1.38875,0.7575 l 0.0163,0 0.0237,-0.65875 0.71875,0 c -0.0287,0.31375 -0.04,0.66875 -0.04,1.2075 l 0,2.58125 z m -0.8075,-2.0475 c 0,-0.12875 -0.007,-0.245 -0.045,-0.355 -0.14625,-0.47625 -0.52875,-0.8625 -1.12625,-0.8625 -0.77125,0 -1.3225,0.65 -1.3225,1.68875 0,0.85875 0.4525,1.595 1.315,1.595 0.5025,0 0.95125,-0.3125 1.11625,-0.835 0.0475,-0.13 0.0625,-0.285 0.0625,-0.43125 l 0,-0.8 z" style="fill:#231f20" />
   <path d="m 329.27935,519.031 c 0,0.38875 0.0187,0.76125 0.065,1.0675 l -0.72625,0 -0.0713,-0.56375 -0.0275,0 c -0.24,0.35 -0.7275,0.6675 -1.35875,0.6675 -0.895,0 -1.35625,-0.6375 -1.35625,-1.28 0,-1.07 0.95375,-1.66 2.66625,-1.65125 l 0,-0.0862 c 0,-0.36875 -0.1,-1.04 -1.00625,-1.02875 -0.425,0 -0.8525,0.11625 -1.16375,0.33375 l -0.18,-0.5475 c 0.365,-0.2275 0.90375,-0.3825 1.46,-0.3825 1.3675,0 1.69875,0.93 1.69875,1.8125 l 0,1.65875 z m -0.78875,-1.1975 c -0.88,-0.02 -1.87875,0.13375 -1.87875,1 0,0.5325 0.3475,0.76625 0.75375,0.76625 0.5825,0 0.96,-0.3625 1.08875,-0.73875 0.025,-0.08 0.0362,-0.1775 0.0362,-0.26 l 0,-0.7675 z" style="fill:#231f20" />
   <path d="m 330.3456,517.10987 c 0,-0.5725 -0.0125,-1.02875 -0.0425,-1.45125 l 0.73,0 0.0412,0.76125 0.0225,0 c 0.3225,-0.55 0.8475,-0.86 1.5675,-0.86 1.08125,0 1.89,0.90625 1.89,2.25375 0,1.595 -0.9825,2.38875 -2.02,2.38875 -0.5975,0 -1.09875,-0.26 -1.365,-0.7 l -0.02,0 0,2.41125 -0.80375,0 0,-4.80375 z m 0.80375,1.185 c 0,0.1075 0.01,0.2275 0.0375,0.32625 0.13625,0.55875 0.6325,0.94375 1.2,0.94375 0.85375,0 1.3475,-0.69625 1.3475,-1.7125 0,-0.8925 -0.45625,-1.655 -1.3125,-1.655 -0.54625,0 -1.07,0.38375 -1.22625,0.99125 -0.02,0.11375 -0.0462,0.235 -0.0462,0.335 l 0,0.77125 z" style="fill:#231f20" />
   <path d="m 337.24597,520.20175 c -1.19,0 -2.125,-0.885 -2.125,-2.28375 0,-1.48875 0.98125,-2.35875 2.2,-2.35875 1.27625,0 2.13625,0.93 2.13625,2.275 0,1.65 -1.14375,2.3675 -2.19875,2.3675 l -0.0125,0 z m 0.0312,-0.61 c 0.7675,0 1.3475,-0.7225 1.3475,-1.73 0,-0.7525 -0.375,-1.70125 -1.33125,-1.70125 -0.945,0 -1.3575,0.88375 -1.3575,1.73 0,0.97 0.54625,1.70125 1.32875,1.70125 l 0.0125,0 z" style="fill:#231f20" />
   <path d="m 340.25597,517.04462 c 0,-0.52125 -0.0125,-0.97 -0.04,-1.38625 l 0.70875,0 0.0387,0.87 0.025,0 c 0.2025,-0.59375 0.7,-0.96875 1.2375,-0.96875 0.0838,0 0.14875,0.01 0.22125,0.025 l 0,0.755 c -0.09,-0.0125 -0.175,-0.0225 -0.285,-0.0225 -0.57,0 -0.97125,0.43375 -1.08125,1.03 -0.0175,0.11875 -0.0275,0.245 -0.0275,0.38375 l 0,2.3675 -0.81,0 0.0125,-3.05375 z" style="fill:#231f20" />
   <path d="m 343.4836,518.01537 c 0.0162,1.09 0.7025,1.54375 1.515,1.54375 0.5725,0 0.93125,-0.10125 1.225,-0.21875 l 0.15,0.56 c -0.28625,0.135 -0.78125,0.28625 -1.4875,0.28625 -1.35625,0 -2.1875,-0.905 -2.1875,-2.2325 0,-1.35 0.80125,-2.4075 2.095,-2.4075 1.44625,0 1.82625,1.27875 1.82625,2.09625 0,0.16375 -0.0137,0.29125 -0.025,0.38375 l -3.11125,-0.0113 z m 2.35625,-0.57875 c 0.0112,-0.5025 -0.21,-1.30875 -1.11125,-1.30875 -0.825,0 -1.17,0.7525 -1.23875,1.30875 l 2.35,0 z" style="fill:#231f20" />
   <path d="m 315.0156,528.03862 c -0.35625,0.13875 -1.07375,0.33875 -1.9075,0.33875 -0.93625,0 -1.7075,-0.23625 -2.31,-0.8125 -0.53375,-0.51375 -0.86,-1.3425 -0.86,-2.305 0,-1.84125 1.27,-3.1875 3.345,-3.1875 0.7175,0 1.28,0.15375 1.54625,0.28125 l -0.19875,0.65375 c -0.32875,-0.16125 -0.7425,-0.26625 -1.365,-0.26625 -1.50625,0 -2.485,0.93125 -2.485,2.485 0,1.5675 0.93125,2.49375 2.38125,2.49375 0.52125,0 0.88375,-0.0738 1.06,-0.1625 l 0,-1.84625 -1.2425,0 0,-0.64375 2.03625,0 0,2.97125 z" style="fill:#231f20" />
   <path d="m 316.50047,526.23525 c 0.0175,1.0875 0.7075,1.53875 1.51625,1.53875 0.57625,0 0.935,-0.1 1.22875,-0.2175 l 0.1425,0.5625 c -0.2825,0.13 -0.78,0.2875 -1.48375,0.2875 -1.35625,0 -2.185,-0.90625 -2.185,-2.23875 0,-1.345 0.79875,-2.40125 2.09,-2.40125 1.4525,0 1.825,1.275 1.825,2.09125 0,0.1625 -0.008,0.29125 -0.0238,0.38625 l -3.11,-0.009 z m 2.35625,-0.5825 c 0.0113,-0.50375 -0.2125,-1.30875 -1.11,-1.30875 -0.82125,0 -1.17125,0.755 -1.24,1.30875 l 2.35,0 z" style="fill:#231f20" />
   <path d="m 320.42585,525.07412 c 0,-0.4625 -0.0113,-0.835 -0.0375,-1.1975 l 0.715,0 0.0463,0.72125 0.0162,0 c 0.22,-0.41125 0.735,-0.8225 1.4675,-0.8225 0.6175,0 1.56625,0.37125 1.56625,1.8925 l 0,2.64625 -0.805,0 0,-2.555 c 0,-0.7175 -0.26125,-1.32375 -1.02375,-1.32375 -0.525,0 -0.9375,0.3775 -1.0825,0.82375 -0.035,0.1025 -0.0562,0.25 -0.0562,0.37875 l 0,2.67625 -0.80625,0 0,-3.24 z" style="fill:#231f20" />
   <path d="m 325.74698,526.23525 c 0.015,1.0875 0.7,1.53875 1.50875,1.53875 0.58125,0 0.9375,-0.1 1.23125,-0.2175 l 0.145,0.5625 c -0.2875,0.13 -0.78,0.2875 -1.48125,0.2875 -1.3625,0 -2.185,-0.90625 -2.185,-2.23875 0,-1.345 0.79625,-2.40125 2.08875,-2.40125 1.44625,0 1.8225,1.275 1.8225,2.09125 0,0.1625 -0.006,0.29125 -0.0275,0.38625 l -3.1025,-0.009 z m 2.3525,-0.5825 c 0.01,-0.50375 -0.20875,-1.30875 -1.105,-1.30875 -0.82875,0 -1.1725,0.755 -1.24125,1.30875 l 2.34625,0 z" style="fill:#231f20" />
   <path d="m 329.79835,525.25937 c 0,-0.5175 -0.015,-0.97125 -0.0388,-1.38375 l 0.70375,0 0.0375,0.87375 0.0288,0 c 0.2025,-0.59875 0.69875,-0.97375 1.23875,-0.97375 0.0813,0 0.14625,0.0113 0.21625,0.0275 l 0,0.755 c -0.085,-0.015 -0.17125,-0.0213 -0.2825,-0.0213 -0.56625,0 -0.97,0.42875 -1.0825,1.03 -0.0175,0.1175 -0.0225,0.24375 -0.0225,0.385 l 0,2.3625 -0.81375,0 0.015,-3.055 z" style="fill:#231f20" />
   <path d="m 335.82185,527.25112 c 0,0.385 0.0188,0.76125 0.0625,1.06375 l -0.72375,0 -0.0737,-0.5625 -0.025,0 c -0.23875,0.35125 -0.72375,0.66625 -1.36,0.66625 -0.89875,0 -1.35875,-0.6375 -1.35875,-1.28 0,-1.07 0.9575,-1.65875 2.66875,-1.65 l 0,-0.0875 c 0,-0.37 -0.1,-1.03875 -1.00625,-1.03125 -0.42375,0 -0.855,0.11875 -1.16625,0.335 l -0.1825,-0.545 c 0.365,-0.22875 0.90625,-0.385 1.46875,-0.385 1.365,0 1.69625,0.93 1.69625,1.8175 l 0,1.65875 z m -0.79,-1.2 c -0.87875,-0.0213 -1.88125,0.13375 -1.88125,1 0,0.53 0.35,0.77 0.75125,0.77 0.58875,0 0.96625,-0.36625 1.095,-0.74375 0.0213,-0.08 0.035,-0.175 0.035,-0.25875 l 0,-0.7675 z" style="fill:#231f20" />
   <path d="m 336.9316,528.31446 0.81,0 0,-6.51 -0.81,0 0,6.51 z" style="fill:#231f20" />
   <path d="m 341.52673,522.12971 0,2.59125 2.99,0 0,-2.59125 0.8025,0 0,6.185 -0.8025,0 0,-2.8975 -2.99,0 0,2.8975 -0.81,0 0,-6.185 0.81,0 z" style="fill:#231f20" />
   <path d="m 348.25373,528.41812 c -1.19125,0 -2.1225,-0.88375 -2.1225,-2.285 0,-1.4875 0.975,-2.3575 2.1975,-2.3575 1.27625,0 2.1375,0.92875 2.1375,2.27625 0,1.65 -1.14875,2.36625 -2.20375,2.36625 l -0.009,0 z m 0.0337,-0.60875 c 0.7675,0 1.345,-0.7225 1.345,-1.7325 0,-0.7525 -0.38,-1.69875 -1.32625,-1.69875 -0.95125,0 -1.36,0.88125 -1.36,1.73 0,0.96875 0.55,1.70125 1.3275,1.70125 l 0.0138,0 z" style="fill:#231f20" />
   <path d="m 351.14672,527.5 c 0.24375,0.14625 0.665,0.30875 1.07,0.30875 0.5775,0 0.855,-0.2775 0.855,-0.655 0,-0.3875 -0.22875,-0.6025 -0.82,-0.8175 -0.805,-0.29375 -1.18,-0.72625 -1.18,-1.2625 0,-0.71125 0.58625,-1.29875 1.5325,-1.29875 0.44625,0 0.84,0.12125 1.0775,0.2725 l -0.19125,0.5825 c -0.1725,-0.1 -0.49,-0.26 -0.90625,-0.26 -0.475,0 -0.7325,0.27625 -0.7325,0.6075 0,0.37625 0.2575,0.54 0.8375,0.76 0.755,0.2825 1.16,0.66875 1.16,1.34 0,0.78875 -0.61375,1.34 -1.6475,1.34 -0.48875,0 -0.93625,-0.1325 -1.25,-0.31375 l 0.195,-0.60375 z" style="fill:#231f20" />
   <path d="m 354.6951,525.32462 c 0,-0.57125 -0.0138,-1.02875 -0.0388,-1.44875 l 0.725,0 0.0437,0.7625 0.0213,0 c 0.31875,-0.55375 0.85125,-0.8625 1.5675,-0.8625 1.0825,0 1.88875,0.90875 1.88875,2.25375 0,1.595 -0.98375,2.38875 -2.02,2.38875 -0.59375,0 -1.1,-0.25875 -1.36625,-0.69875 l -0.0175,0 0,2.4125 -0.80375,0 0,-4.8075 z m 0.80375,1.185 c 0,0.11 0.01,0.23 0.0437,0.3275 0.135,0.56125 0.62375,0.94375 1.195,0.94375 0.85375,0 1.34875,-0.69375 1.34875,-1.7125 0,-0.88875 -0.46,-1.6525 -1.3125,-1.6525 -0.55125,0 -1.07125,0.38625 -1.22875,0.99375 -0.02,0.1075 -0.0462,0.2275 -0.0462,0.3275 l 0,0.7725 z" style="fill:#231f20" />
   <path d="m 360.12923,523.05962 c -0.29875,0 -0.50125,-0.23625 -0.50125,-0.52125 0,-0.28625 0.20875,-0.5125 0.52,-0.5125 0.31,0 0.515,0.22625 0.515,0.5125 0,0.285 -0.205,0.52125 -0.5225,0.52125 l -0.0113,0 z m 0.42375,5.255 -0.8075,0 0,-4.43875 0.8075,0 0,4.43875 z" style="fill:#231f20" />
   <path d="m 362.77098,522.80987 0,1.06625 1.1575,0 0,0.6125 -1.1575,0 0,2.39375 c 0,0.55125 0.1575,0.86625 0.6075,0.86625 0.215,0 0.35,-0.0213 0.465,-0.0562 l 0.0387,0.615 c -0.15375,0.0538 -0.40375,0.11125 -0.7175,0.11125 -0.37625,0 -0.675,-0.13375 -0.87125,-0.34375 -0.22125,-0.24625 -0.30875,-0.64125 -0.30875,-1.16375 l 0,-2.4225 -0.6875,0 0,-0.6125 0.6875,0 0,-0.81625 0.78625,-0.25 z" style="fill:#231f20" />
   <path d="m 367.82797,527.25112 c 0,0.385 0.0163,0.76125 0.0613,1.06375 l -0.725,0 -0.07,-0.5625 -0.0288,0 c -0.245,0.35125 -0.725,0.66625 -1.3575,0.66625 -0.89875,0 -1.36125,-0.6375 -1.36125,-1.28 0,-1.07 0.95375,-1.65875 2.67125,-1.65 l 0,-0.0875 c 0,-0.37 -0.0962,-1.03875 -1.00875,-1.03125 -0.42375,0 -0.85625,0.11875 -1.17,0.335 l -0.1825,-0.545 c 0.37125,-0.22875 0.91,-0.385 1.46875,-0.385 1.36875,0 1.7025,0.93 1.7025,1.8175 l 0,1.65875 z m -0.79125,-1.2 c -0.88125,-0.0213 -1.88375,0.13375 -1.88375,1 0,0.53 0.35375,0.77 0.7525,0.77 0.59375,0 0.9675,-0.36625 1.0925,-0.74375 0.0288,-0.08 0.0387,-0.175 0.0387,-0.25875 l 0,-0.7675 z" style="fill:#231f20" />
   <path d="m 368.9316,528.31446 0.81125,0 0,-6.51 -0.81125,0 0,6.51 z" style="fill:#231f20" />
   <path d="m 309.9366,531.28571 59.795,0 0,-0.41375 -59.795,0 0,0.41375 z" style="fill:#231f20" />
   <path d="m 310.0931,537.56725 c 0.275,0.175 0.66875,0.31 1.08625,0.31 0.62625,0 0.98375,-0.325 0.98375,-0.80125 0,-0.43625 -0.2475,-0.69625 -0.88375,-0.93375 -0.77,-0.2825 -1.24625,-0.68875 -1.24625,-1.3475 0,-0.72875 0.60625,-1.27625 1.5275,-1.27625 0.475,0 0.83,0.1075 1.03375,0.22875 l -0.16875,0.49875 c -0.1425,-0.0912 -0.4575,-0.22875 -0.8875,-0.22875 -0.6475,0 -0.88625,0.3875 -0.88625,0.71125 0,0.44125 0.28125,0.6525 0.935,0.91125 0.8,0.31 1.20125,0.69125 1.20125,1.3875 0,0.725 -0.53375,1.3625 -1.64625,1.3625 -0.4575,0 -0.95375,-0.13875 -1.20375,-0.3075 l 0.155,-0.515 z" style="fill:#231f20" />
   <path d="m 313.64997,534.29737 c -0.23125,0 -0.385,-0.18125 -0.385,-0.39625 0,-0.2175 0.1625,-0.3925 0.4,-0.3925 0.23875,0 0.39,0.175 0.39,0.3925 0,0.215 -0.15125,0.39625 -0.39375,0.39625 l -0.0113,0 z m 0.32125,4.015 -0.61125,0 0,-3.3925 0.61125,0 0,3.3925 z" style="fill:#231f20" />
   <path d="m 314.75697,535.83712 c 0,-0.3525 -0.009,-0.63625 -0.0312,-0.9175 l 0.545,0 0.035,0.55625 0.0138,0 c 0.1675,-0.315 0.55875,-0.6325 1.12125,-0.6325 0.46875,0 1.19875,0.28125 1.19875,1.445 l 0,2.02375 -0.61875,0 0,-1.95625 c 0,-0.54 -0.20375,-1.00625 -0.78375,-1.00625 -0.39875,0 -0.7125,0.29 -0.82625,0.63375 -0.03,0.0775 -0.0413,0.18375 -0.0413,0.285 l 0,2.04375 -0.6125,0 0,-2.475 z" style="fill:#231f20" />
   <path d="m 321.29535,537.81387 c 0,0.78625 -0.16125,1.25625 -0.485,1.555 -0.33875,0.30125 -0.81,0.40375 -1.2375,0.40375 -0.40375,0 -0.85375,-0.0962 -1.13,-0.28 l 0.15875,-0.47625 c 0.22125,0.14625 0.575,0.27625 0.9925,0.27625 0.63125,0 1.09375,-0.33 1.09375,-1.195 l 0,-0.36875 -0.0163,0 c -0.18125,0.315 -0.55125,0.57 -1.0775,0.57 -0.84375,0 -1.44,-0.71375 -1.44,-1.66 0,-1.1475 0.75125,-1.795 1.52875,-1.795 0.59125,0 0.9075,0.3025 1.0625,0.585 l 0.0125,0 0.0213,-0.50875 0.54625,0 c -0.0238,0.24 -0.03,0.50875 -0.03,0.92625 l 0,1.9675 z m -0.615,-1.55875 c 0,-0.1 -0.009,-0.19125 -0.0387,-0.2725 -0.1075,-0.36625 -0.4025,-0.65875 -0.85625,-0.65875 -0.59,0 -1.01,0.49625 -1.01,1.285 0,0.66 0.34375,1.22 1.00125,1.22 0.385,0 0.73,-0.2375 0.85625,-0.6375 0.035,-0.0987 0.0475,-0.21625 0.0475,-0.33125 l 0,-0.605 z" style="fill:#231f20" />
   <path d="m 322.6991,533.59646 0,1.97 2.27875,0 0,-1.97 0.62,0 0,4.715 -0.62,0 0,-2.21375 -2.27875,0 0,2.21375 -0.6175,0 0,-4.715 0.6175,0 z" style="fill:#231f20" />
   <path d="m 326.7476,536.72175 c 0.0188,0.83125 0.5425,1.17625 1.1575,1.17625 0.44,0 0.70875,-0.08 0.9425,-0.16875 l 0.1075,0.43625 c -0.21625,0.0987 -0.59625,0.21375 -1.13125,0.21375 -1.03875,0 -1.6675,-0.69 -1.6675,-1.7075 0,-1.0275 0.61,-1.83625 1.595,-1.83625 1.105,0 1.39,0.98 1.39,1.6 0,0.12375 -0.005,0.225 -0.0175,0.2925 l -2.37625,-0.006 z m 1.80125,-0.4425 c 0.005,-0.3825 -0.15875,-1.00375 -0.84375,-1.00375 -0.63375,0 -0.89625,0.57375 -0.94875,1.00375 l 1.7925,0 z" style="fill:#231f20" />
   <path d="m 332.05572,537.49675 c 0,0.29375 0.015,0.585 0.0462,0.815 l -0.5525,0 -0.0575,-0.42875 -0.0187,0 c -0.17875,0.27125 -0.555,0.50625 -1.03625,0.50625 -0.68625,0 -1.03625,-0.4825 -1.03625,-0.975 0,-0.81625 0.7275,-1.265 2.035,-1.25875 l 0,-0.0687 c 0,-0.285 -0.075,-0.79 -0.77125,-0.78625 -0.3175,0 -0.64625,0.09 -0.88875,0.25375 l -0.1375,-0.41625 c 0.28125,-0.17125 0.695,-0.295 1.12,-0.295 1.0425,0 1.2975,0.71125 1.2975,1.38875 l 0,1.265 z m -0.605,-0.91375 c -0.6725,-0.015 -1.4325,0.10125 -1.4325,0.76 0,0.40875 0.265,0.58875 0.57,0.58875 0.45125,0 0.735,-0.28 0.83375,-0.56375 0.0263,-0.0625 0.0288,-0.13625 0.0288,-0.1975 l 0,-0.5875 z" style="fill:#231f20" />
   <path d="m 332.79785,538.31321 0.615,0 0,-4.97125 -0.615,0 0,4.97125 z" style="fill:#231f20" />
   <path d="m 335.07535,534.10775 0,0.8125 0.885,0 0,0.47 -0.885,0 0,1.83 c 0,0.41875 0.12125,0.6575 0.46375,0.6575 0.1725,0 0.265,-0.0125 0.3575,-0.0387 l 0.0263,0.46625 c -0.11875,0.0425 -0.30625,0.085 -0.545,0.085 -0.28625,0 -0.51875,-0.1025 -0.6625,-0.26375 -0.17,-0.185 -0.24125,-0.4875 -0.24125,-0.885 l 0,-1.85125 -0.52,0 0,-0.47 0.52,0 0,-0.6225 0.60125,-0.19 z" style="fill:#231f20" />
   <path d="m 336.54723,533.3415 0.62125,0 0,2.11125 0.0138,0 c 0.0937,-0.1775 0.25125,-0.335 0.4425,-0.43125 0.17875,-0.1125 0.3975,-0.1775 0.6275,-0.1775 0.45875,0 1.18125,0.28 1.18125,1.45 l 0,2.0175 -0.6125,0 0,-1.94625 c 0,-0.55 -0.205,-1.00875 -0.785,-1.00875 -0.40125,0 -0.7075,0.28375 -0.825,0.61125 -0.0387,0.0925 -0.0425,0.18125 -0.0425,0.3 l 0,2.04375 -0.62125,0 0,-4.97 z" style="fill:#231f20" />
  </g>
  <path style="fill:#00a760" d="m 61.4783,410.507 -0.014,0.164 -0.164,0.014 c -0.041,0.003 -4.152,0.338 -9.132,0.338 -4.981,0 -9.09,-0.335 -9.132,-0.338 l -0.165,-0.014 -0.013,-0.164 c -0.003,-0.041 -0.339,-4.152 -0.339,-9.132 0,-4.98 0.336,-9.09 0.339,-9.131 l 0.013,-0.165 0.165,-0.014 c 0.042,-0.003 4.151,-0.338 9.132,-0.338 4.98,0 9.091,0.335 9.132,0.338 l 0.164,0.014 0.014,0.165 c 0.003,0.041 0.338,4.151 0.338,9.131 0,4.98 -0.335,9.091 -0.338,9.132" />
  <path style="fill:#ffffff" d="m 52.1682,392.5899 c -4.2,0 -7.726,0.25 -8.478,0.307 -0.058,0.752 -0.308,4.279 -0.308,8.478 0,4.199 0.25,7.726 0.308,8.479 0.752,0.057 4.278,0.307 8.478,0.307 4.199,0 7.726,-0.25 8.478,-0.307 0.057,-0.753 0.307,-4.28 0.307,-8.479 0,-4.199 -0.25,-7.726 -0.307,-8.478 -0.752,-0.057 -4.279,-0.307 -8.478,-0.307" />
  <path style="fill:#00a760" d="m 53.1735,394.8856 2.089,4.604 c 0.282,0.596 0.284,0.891 0.1,0.891 -0.337,0 -0.425,-0.282 -0.708,-0.877 l -2.177,-4.618 -1.742,0 4.712,9.892 1.554,0 -1.853,-3.886 0.023,0 c 0.592,0.595 0.781,0.646 1.366,0.646 0.738,0 1.137,-0.529 0.696,-1.455 l -2.418,-5.197 -1.642,0 z" />
  <path style="fill:#00a760" d="m 50.5793,408.0986 c -0.5,0 -1.366,-0.116 -1.788,-1.097 -0.424,-0.98 -1.598,-3.423 -1.79,-3.884 -0.192,-0.462 -0.307,-0.866 -0.096,-1.136 0.212,-0.269 0.519,-0.519 1.828,-0.211 0,0 -0.693,-1.615 -0.866,-1.943 -0.173,-0.327 -0.134,-0.76 -1.116,-0.76 l -1.595,0 -0.405,-0.913 c 0,0 2.481,-0.02 3.001,-0.02 0.519,0 1.058,0.039 1.557,1.116 0.5,1.078 4.078,8.828 4.078,8.828 0,0 -2.308,0.02 -2.808,0.02 m -1.433,-5.389 c -0.08,-0.166 -0.268,-0.244 -0.421,-0.175 -0.153,0.069 -0.213,0.259 -0.133,0.425 l 1.874,3.913 c 0.08,0.166 0.268,0.244 0.421,0.175 0.153,-0.069 0.213,-0.26 0.133,-0.425 l -1.874,-3.913 z" />
  <path style="fill:#00a760" d="m 55.7167,407.0145 c -0.47,0 -0.94,-0.073 -1.201,-0.604 -0.3,-0.609 -4.203,-9.045 -4.442,-9.566 -0.243,-0.532 -0.617,-1.142 -1.359,-1.142 l -3.948,0 -0.386,-0.799 4.022,0 c 0,0 0.943,-0.03 1.303,0.144 0.359,0.175 0.697,0.431 1.036,1.211 0.338,0.779 3.825,8.319 3.959,8.585 0.133,0.268 0.297,0.668 0.472,1.006 0.174,0.338 0.513,0.38 0.974,0.38 l 3.129,0 0.369,0.785 -3.928,0 z" />
  <path style="fill:#00a760" d="m 48.7146,395.9976 c 0.571,0 0.872,0.491 1.091,0.969 0.238,0.522 4.144,8.964 4.444,9.574 0.334,0.679 0.929,0.77 1.467,0.77 l 4.067,0 0.372,0.793 -4.041,0 c 0,0 -0.576,0.012 -0.953,-0.013 -0.376,-0.025 -1.253,-0.213 -1.717,-1.19 -0.464,-0.978 -3.885,-8.495 -4.181,-9.065 -0.295,-0.571 -0.307,-1.024 -0.995,-1.024 l -2.964,0 -0.394,-0.814 3.804,0 z" />
 </g>
</g>
</svg>