<?xml version="1.0" encoding="UTF-8" standalone="no"?>
<!-- Created with Inkscape (http://www.inkscape.org/) -->

<svg
   xmlns:dc="http://purl.org/dc/elements/1.1/"
   xmlns:cc="http://creativecommons.org/ns#"
   xmlns:rdf="http://www.w3.org/1999/02/22-rdf-syntax-ns#"
   xmlns:svg="http://www.w3.org/2000/svg"
   xmlns="http://www.w3.org/2000/svg"
   xmlns:sodipodi="http://sodipodi.sourceforge.net/DTD/sodipodi-0.dtd"
   xmlns:inkscape="http://www.inkscape.org/namespaces/inkscape"
   version="1.1"
   id="svg2"
   xml:space="preserve"
   width="222.88086"
   height="63.193027"
   viewBox="0 0 222.88086 63.193026"
   sodipodi:docname="LTA.svg"
   inkscape:version="0.92.5 (2060ec1f9f, 2020-04-08)"><metadata
     id="metadata8"><rdf:RDF><cc:Work
         rdf:about=""><dc:format>image/svg+xml</dc:format><dc:type
           rdf:resource="http://purl.org/dc/dcmitype/StillImage" /><dc:title></dc:title></cc:Work></rdf:RDF></metadata><defs
     id="defs6" /><sodipodi:namedview
     pagecolor="#ffffff"
     bordercolor="#666666"
     borderopacity="1"
     objecttolerance="10"
     gridtolerance="10"
     guidetolerance="10"
     inkscape:pageopacity="0"
     inkscape:pageshadow="2"
     inkscape:window-width="1920"
     inkscape:window-height="1017"
     id="namedview4"
     showgrid="false"
     inkscape:snap-global="false"
     fit-margin-top="0"
     fit-margin-left="0"
     fit-margin-right="0"
     fit-margin-bottom="0"
     inkscape:zoom="7.919029"
     inkscape:cx="111.44043"
     inkscape:cy="31.596514"
     inkscape:window-x="-8"
     inkscape:window-y="-8"
     inkscape:window-maximized="1"
     inkscape:current-layer="g10" /><g
     id="g10"
     inkscape:groupmode="layer"
     inkscape:label="LTA_AR17_18_FA"
     transform="matrix(1.3333333,0,0,-1.3333333,-514.01562,262.54773)"><g
       id="g500"><path
         id="path28"
         transform="matrix(0.75000002,0,0,-0.75000002,0,841.89002)"
         d="m 694.00781,869.89258 -2.92383,0.45508 v 0.32422 c 0.55467,0.0547 1.4375,0.10984 1.4375,1.22851 v 9.43945 c 0,1.23467 -0.6495,1.40235 -1.4375,1.40235 v 0.32422 h 4.36133 v -0.32422 c -0.79333,0 -1.4375,-0.16768 -1.4375,-1.40235 v -2.31054 c 0,-1.79867 1.35504,-3.95899 2.48438,-3.95899 1.22666,0 1.25976,0.7359 1.25976,2.36524 v 3.90429 c 0,1.23467 -0.66354,1.40235 -1.43554,1.40235 v 0.32422 h 4.35351 v -0.32422 c -0.78666,0 -1.43359,-0.16768 -1.43359,-1.40235 v -4.32031 c 0,-1.764 -0.19284,-2.86523 -2.1875,-2.86523 -1.88934,0 -2.73777,1.80124 -3.00977,2.5039 h -0.0312 z m -144.15429,0.002 -2.90821,0.45313 v 0.32422 c 0.54934,0.0547 1.42969,0.10984 1.42969,1.22851 v 3.7168 h -0.0273 c -0.268,-0.53067 -0.9915,-1.46094 -2.1875,-1.46094 -2.632,0 -3.48243,2.23673 -3.48243,4.55273 0,2.31467 0.85043,4.55079 3.48243,4.55079 1.064,0 2.0075,-0.89621 2.1875,-1.40821 h 0.0273 v 1.40821 l 2.92578,-0.46094 v -0.31836 c -0.57067,-0.0387 -1.44726,-0.0911 -1.44726,-1.23242 z m 119.15234,0.35938 -3.92969,10.33203 c -0.54133,1.45466 -0.78358,2.10156 -2.26758,2.10156 v 0.37891 h 4.27539 v -0.37891 c -0.72266,0 -1.34375,-0.11278 -1.34375,-0.66211 0,-0.248 0.12319,-0.54724 0.22852,-0.89258 l 0.83398,-2.25195 h 4.74415 l 0.89453,2.38281 c 0.076,0.21467 0.17187,0.55216 0.17187,0.79883 0,0.49333 -0.75832,0.625 -1.34766,0.625 v 0.37891 h 4.92383 v -0.37891 c -1.22666,0 -1.72102,-0.76041 -2.17968,-1.95508 l -3.94922,-10.47851 z m 49.94922,0 c -0.612,0 -1.08008,0.47331 -1.08008,1.08398 0,0.60133 0.46808,1.07422 1.08008,1.07422 0.60666,0 1.07226,-0.47289 1.07226,-1.07422 0,-0.61067 -0.4656,-1.08398 -1.07226,-1.08398 z m -204.93946,0.18554 v 0.38282 c 1.02267,0 1.6504,0.13078 1.6504,1.55078 v 8.75976 c 0,1.42267 -0.62773,1.55469 -1.6504,1.55469 v 0.37891 h 8.52149 l 0.12891,-2.73047 h -0.47657 c -0.308,1.41866 -0.64872,1.99609 -2.27539,1.99609 h -1.27734 c -1.14933,0 -1.27344,-0.12055 -1.27344,-1.19922 v -8.75976 c 0,-1.42 0.59725,-1.55078 1.64258,-1.55078 v -0.38282 z m 39.81055,0 -0.12695,2.58399 h 0.47461 c 0.19333,-1.068 0.48073,-1.83985 2.41406,-1.83985 h 1.1543 v 9.94922 c 0,1.42267 -0.68503,1.55469 -1.81836,1.55469 v 0.37891 h 5.33203 v -0.37891 c -1.14133,0 -1.82422,-0.13202 -1.82422,-1.55469 v -9.94922 h 1.02344 c 1.85333,0 2.42244,0.64518 2.53711,1.83985 h 0.48633 l -0.13672,-2.58399 z m 70.07227,1.06446 c 0,1.82266 -0.75892,2.79101 -2.29492,2.79101 v 0.67383 h 1.31445 v 5.46484 c 0,2.12267 0.14443,2.82422 3.00976,2.82422 0.296,0 0.60349,-0.0462 0.91016,-0.0742 v -0.65039 c -0.26533,0.0413 -0.51238,0.0977 -0.76172,0.0977 -1.04133,0 -1.6875,-0.22654 -1.6875,-1.67188 v -5.99023 h 2.44922 v -0.61719 h -2.44922 v -2.84765 z m 63.42968,0 c 0,1.82266 -0.74896,2.79101 -2.29296,2.79101 v 0.67383 h 1.31445 v 5.46484 c 0,2.12267 0.15057,2.82422 3.00391,2.82422 0.30666,0 0.61406,-0.0462 0.91406,-0.0742 v -0.65039 c -0.26267,0.0413 -0.51443,0.0977 -0.75977,0.0977 -1.04133,0 -1.6875,-0.22654 -1.6875,-1.67188 v -5.99023 h 2.44727 v -0.61719 h -2.44727 v -2.84765 z m 36.80079,0 c 0,1.82266 -0.7535,2.79101 -2.29883,2.79101 v 0.67383 h 1.31445 v 5.46484 c 0,2.12267 0.14248,2.82422 3.00781,2.82422 0.29867,0 0.60393,-0.0462 0.91993,-0.0742 v -0.65039 c -0.272,0.0413 -0.51434,0.0977 -0.76368,0.0977 -1.04,0 -1.68945,-0.22654 -1.68945,-1.67188 v -5.99023 h 1.98828 c 1.09467,0 1.40657,0.10133 2.00391,1.5 l 2.86133,6.59961 -0.5918,1.45312 c -0.42133,1.08667 -0.92578,1.84375 -1.42578,1.84375 -1.04934,0 -0.36017,-1.36328 -1.57617,-1.36328 -0.552,0 -0.89453,0.37966 -0.89453,0.84766 0,0.99333 0.98555,1.21875 1.96289,1.21875 1.68,0 2.33879,-0.98892 3.32812,-3.54492 l 2.80469,-7.2461 c 0.396,-1.01866 0.85107,-1.60937 1.8164,-1.60937 v -0.31445 h -3.58593 v 0.31445 c 0.74666,0 1.05078,0.153 1.05078,0.625 0,0.232 -0.26154,0.89377 -0.54688,1.64844 l -1.60156,4.15234 -2.03711,-4.71484 c -0.228,-0.516 -0.34375,-0.9147 -0.34375,-1.19336 0,-0.40267 0.36381,-0.51758 1.00781,-0.51758 v -0.31445 h -3.76757 v -0.002 h -2.45313 v -2.84765 z m -54.94727,0.85351 2.10352,5.7832 h -4.23243 z m -134.03125,1.79688 -2.91406,0.45898 v 0.32031 c 0.55066,0.0347 1.43555,0.0991 1.43555,1.23243 v 5.17382 c 0,1.23467 -0.63955,1.40235 -1.43555,1.40235 v 0.32422 h 4.35351 v -0.32422 c -0.784,0 -1.43945,-0.16768 -1.43945,-1.40235 v -2.33203 c 0,-1.8 1.36428,-3.9375 2.48828,-3.9375 1.24534,0 1.27149,0.7359 1.27149,2.36524 v 3.90429 c 0,1.23467 -0.64904,1.40235 -1.45704,1.40235 v 0.32422 h 4.36524 v -0.32422 c -0.79733,0 -1.43945,-0.16768 -1.43945,-1.40235 v -4.32031 c 0,-1.764 -0.1867,-2.86523 -2.19336,-2.86523 -1.87734,0 -2.73343,1.80124 -2.9961,2.5039 h -0.0391 z m 31.48242,0 -2.92383,0.45898 v 0.32031 c 0.57067,0.0347 1.43555,0.0991 1.43555,1.23243 v 5.17382 c 0,1.23467 -0.64488,1.40235 -1.43555,1.40235 v 0.32422 h 4.35352 v -0.32422 c -0.792,0 -1.42969,-0.16768 -1.42969,-1.40235 v -2.86132 c 0,-2.256 1.11099,-3.01563 1.45899,-3.01563 0.25733,0 0.50284,0.45898 1.07617,0.45899 0.51067,0 0.9082,-0.34201 0.9082,-0.88868 0,-0.572 -0.53055,-0.8789 -0.94922,-0.8789 -1.43733,0 -2.11284,1.07987 -2.46484,2.0332 h -0.0293 z m 15.38281,0 -2.91406,0.45898 v 0.32031 c 0.54534,0.0347 1.42774,0.0991 1.42774,1.23243 v 5.17382 c 0,1.23467 -0.6264,1.40235 -1.42774,1.40235 v 0.32422 h 4.34961 v -0.32422 c -0.78933,0 -1.43555,-0.16768 -1.43555,-1.40235 v -2.33203 c 0,-1.8 1.37229,-3.9375 2.48829,-3.9375 1.248,0 1.26367,0.7359 1.26367,2.36524 v 3.90429 c 0,1.23467 -0.64274,1.40235 -1.44141,1.40235 v 0.32422 h 4.36328 v -0.32422 c -0.79866,0 -1.4375,-0.16768 -1.4375,-1.40235 v -4.32031 c 0,-1.764 -0.18846,-2.86523 -2.20312,-2.86523 -1.87734,0 -2.72543,1.80124 -2.9961,2.5039 h -0.0371 z m 35.49805,0 -2.92383,0.45898 v 0.32031 c 0.56934,0.0347 1.43946,0.0991 1.43946,1.23243 v 5.17382 c 0,1.23467 -0.63946,1.40235 -1.43946,1.40235 v 0.32422 h 4.36524 v -0.32422 c -0.80267,0 -1.44141,-0.16768 -1.44141,-1.40235 v -2.86132 c 0,-2.256 1.11294,-3.01563 1.46094,-3.01563 0.26267,0 0.5135,0.45898 1.07617,0.45899 0.508,0 0.9082,-0.34201 0.9082,-0.88868 0,-0.572 -0.52745,-0.8789 -0.93945,-0.8789 -1.44,0 -2.11018,1.07987 -2.46484,2.0332 h -0.041 z m 60.3418,0 -2.91797,0.45898 v 0.32031 c 0.57067,0.0347 1.44531,0.0991 1.44531,1.23243 v 4.22656 c 0,1.76 0.82721,2.86719 2.42188,2.86719 2.03066,0 2.5937,-1.65201 2.8457,-2.27735 h 0.0312 v 2.27735 l 2.91992,-0.46289 v -0.31446 c -0.56533,-0.0387 -1.43945,-0.0944 -1.43945,-1.23437 v -7.09375 l -2.91797,0.45898 v 0.32031 c 0.572,0.0347 1.4375,0.0991 1.4375,1.23243 v 2.61718 c 0,1.724 -1.07117,3.50586 -2.3125,3.50586 -0.98267,0 -1.51367,-0.74121 -1.51367,-2.31054 z m 34.62305,0 -2.91993,0.45898 v 0.32031 c 0.57067,0.0347 1.44141,0.0991 1.44141,1.23243 v 5.17382 c 0,1.23467 -0.64941,1.40235 -1.44141,1.40235 v 0.32422 h 4.35743 v -0.32422 c -0.79467,0 -1.4375,-0.16768 -1.4375,-1.40235 v -2.86132 c 0,-2.256 1.11774,-3.01563 1.45507,-3.01563 0.268,0 0.51599,0.45898 1.08399,0.45899 0.51066,0 0.9082,-0.34201 0.9082,-0.88868 0,-0.572 -0.52798,-0.8789 -0.94531,-0.8789 -1.44933,0 -2.10137,1.07987 -2.4707,2.0332 h -0.0312 z m -185.24024,0.002 c -1.316,0 -3.15625,0.63004 -3.15625,1.85937 0,0.512 0.40206,0.85157 0.91406,0.85157 0.31867,0 0.88868,-0.20704 0.88868,-0.98438 0,-0.608 0.15017,-1.09765 1.32617,-1.09765 1.59466,0 1.60937,1.40318 1.60937,2.72851 v 0.72071 c -1.444,0.13333 -5.00586,0.13276 -5.00586,2.88476 0,1.23067 0.97406,2.14258 2.27539,2.14258 1.28667,0 2.10251,-0.53872 2.70118,-1.38672 h 0.0293 c 0,0.81333 0.32464,1.38672 1.41797,1.38672 0.68533,0 1.15872,-0.11845 1.38672,-0.17578 v -0.41211 c -0.16933,0.0493 -0.33457,0.0898 -0.50391,0.0898 -0.59066,0 -0.81836,-0.23 -0.81836,-0.88867 v -4.70117 c 0,-1.76134 -0.48312,-3.01758 -3.06445,-3.01758 z m 46.66797,0 c -1.30533,0 -3.14258,0.63004 -3.14258,1.85937 0,0.512 0.39221,0.85157 0.90821,0.85157 0.30799,0 0.88476,-0.20704 0.88476,-0.98438 0,-0.608 0.15932,-1.09765 1.33398,-1.09765 1.59334,0 1.60743,1.40318 1.60743,2.72851 v 0.72071 c -1.43467,0.13333 -5,0.13276 -5,2.88476 0,1.23067 0.96277,2.14258 2.27343,2.14258 1.29334,0 2.10136,-0.53872 2.69336,-1.38672 h 0.0332 c 0,0.81333 0.31601,1.38672 1.41601,1.38672 0.68,0 1.16396,-0.11845 1.39063,-0.17578 v -0.41211 c -0.17734,0.0493 -0.33625,0.0898 -0.51758,0.0898 -0.58133,0 -0.8125,-0.23 -0.8125,-0.88867 v -4.70117 c 0,-1.76134 -0.47369,-3.01758 -3.06836,-3.01758 z m 18.74609,0 c -1.55466,0 -3.14453,0.58552 -3.14453,2.35352 0,0.77066 0.22723,1.25216 0.97657,1.79882 1.04799,0.78134 3.4707,1.44249 3.4707,2.78516 0,0.644 -0.64024,1.53711 -1.87891,1.53711 -1.59066,0 -2.03803,-1.14903 -2.2207,-1.81836 h -0.48828 l 0.13281,2.10156 c 0.51733,0.16934 1.39651,0.34766 2.45117,0.34766 2.112,0 3.48242,-0.92917 3.48242,-2.5625 0,-1.41733 -0.79524,-1.957 -1.7539,-2.48633 -1.06134,-0.608 -2.69531,-1.15695 -2.69531,-2.23828 0,-0.88667 0.87564,-1.18945 1.57031,-1.18945 1.35066,0 1.77678,1.06021 1.93945,1.68554 h 0.48047 l -0.13086,-1.99218 c -0.42667,-0.12534 -1.41274,-0.32227 -2.19141,-0.32227 z m 6.50586,0 -2.90039,0.45703 v 0.32227 c 0.54,0.0333 1.42969,0.0958 1.42969,1.23047 v 9.17382 c 0,1.212 -0.64435,1.4043 -1.42969,1.4043 v 0.32227 h 4.35547 v -0.32227 c -0.79733,0 -1.45508,-0.1923 -1.45508,-1.4043 v -3.54296 h 0.0469 c 0.26266,0.53333 0.98015,1.46289 2.16015,1.46289 2.62934,0 3.49024,-2.18607 3.49024,-4.55274 0,-2.31467 -0.8609,-4.55078 -3.49024,-4.55078 -1.06,0 -1.98549,0.89034 -2.16015,1.40234 h -0.0469 z m 10.70118,0 c -2.42934,0 -3.95899,1.70607 -3.95899,4.55273 0,2.84 1.52965,4.55079 3.95899,4.55079 2.42133,0 3.96289,-1.71079 3.96289,-4.55079 0,-2.84666 -1.54156,-4.55273 -3.96289,-4.55273 z m 95.14453,0 c -2.41467,0 -3.95508,1.70607 -3.95508,4.55273 0,2.84 1.54041,4.55079 3.95508,4.55079 2.43066,0 3.96875,-1.71079 3.96875,-4.55079 0,-2.84666 -1.53809,-4.55273 -3.96875,-4.55273 z m 14.75,0 -2.92383,0.45703 v 0.32031 c 0.57333,0.0333 1.43555,0.0991 1.43554,1.23243 v 5.17382 c 0,1.23467 -0.63421,1.40235 -1.43554,1.40235 v 0.32617 h 4.36523 v -0.32617 c -0.804,0 -1.4414,-0.16768 -1.4414,-1.40235 z m -109.89453,0.62695 c 1.88933,0 2.27148,2.34445 2.27148,3.92578 0,1.572 -0.38215,3.92188 -2.27148,3.92188 -1.89867,0 -2.2754,-2.34988 -2.2754,-3.92188 0,-1.58133 0.37673,-3.92578 2.2754,-3.92578 z m 95.14453,0 c 1.90666,0 2.28515,2.34445 2.28515,3.92578 0,1.572 -0.37849,3.92188 -2.28515,3.92188 -1.896,0 -2.26563,-2.34988 -2.26563,-3.92188 0,-1.58133 0.36963,-3.92578 2.26563,-3.92578 z m -158.59766,0.0723 c 1.45733,0 1.96875,2.05085 1.96875,3.85351 0,1.61334 -0.42608,3.84766 -1.96875,3.84766 -1.732,0 -2.04883,-2.20099 -2.04883,-3.84766 0,-1.592 0.4435,-3.85351 2.04883,-3.85351 z m 54.70508,0 c 1.756,0 2.06055,2.18223 2.06055,3.85156 0,1.59067 -0.41922,3.84961 -2.06055,3.84961 -1.42934,0 -1.95313,-2.04828 -1.95313,-3.84961 0,-1.62933 0.46779,-3.85156 1.95313,-3.85156 z m -72.29102,4 v 1.12305 c 0,1.288 -0.79667,2.48242 -2.02734,2.48242 -0.64133,0 -1.28906,-0.66311 -1.28906,-1.64844 0,-1.76667 2.4244,-1.93436 3.3164,-1.95703 z m 46.67774,0 v 1.12305 c 0,1.288 -0.80387,2.48242 -2.03321,2.48242 -0.65066,0 -1.28125,-0.66311 -1.28125,-1.64844 0,-1.76667 2.42512,-1.93436 3.31446,-1.95703 z"
         style="fill:#068795;fill-opacity:1;fill-rule:nonzero;stroke:none;stroke-width:1.33333325"
         inkscape:connector-curvature="0" /><path
         d="m 484.4807,182.1238 c 0,0 7.015,3.428 7.1,7.589 0.083,4.158 -3.077,6.932 -7.064,6.892 -3.992,0.04 -7.159,-2.734 -7.073,-6.892 0.094,-4.161 7.037,-7.589 7.037,-7.589 m -2.943,-3.655 -11.125,-7.174 h -3.909 l 13.556,8.26 -0.137,0.102 c 0,0 -7.191,4.375 -5.717,10.056 0,0 1.287,7.16 10.349,7.198 9.063,-0.038 10.342,-7.198 10.342,-7.198 1.468,-5.681 -5.727,-10.056 -5.727,-10.056 l -0.159,-0.117 13.577,-8.245 h -10.924 l -7.119,5.069 -7.127,-5.069 h -3.561 l 9.196,6.107 z m 5.859,1.922 c 2.014,1.389 5.093,3.641 6.042,6.327 0.335,0.951 0.735,2.731 -0.818,5.287 0.254,-2.468 1.389,-5.782 -6.633,-10.66 l -0.122,-0.078 z"
         style="fill:#21368b;fill-opacity:1;fill-rule:nonzero;stroke:none"
         id="path132"
         inkscape:connector-curvature="0" /><path
         id="path136"
         transform="matrix(0.75000002,0,0,-0.75000002,0,841.89002)"
         d="m 647.33984,903.63281 v 7.86524 h 0.84375 v -7.86524 z m -89.60351,0.002 1.46094,7.86328 h 1.04687 l 1.80078,-6.58789 h 0.0215 l 1.83593,6.58789 h 1.04883 l 1.44727,-7.86328 h -0.78711 l -1.17578,6.6914 h -0.0195 l -1.8711,-6.6914 h -0.82031 l -1.90234,6.73437 h -0.0215 l -1.14062,-6.73437 z m 18.72461,0 v 7.86328 h 0.9414 v -3.83985 h 0.0254 l 3.01954,3.83985 h 1.17382 l -3.38281,-4.20313 3.0293,-3.66015 h -1.02344 l -2.81641,3.52148 h -0.0254 v -3.52148 z m 24.75976,0 2.39258,4.22656 v 3.63672 h 0.94531 v -3.63672 l 2.48633,-4.22656 h -0.95703 l -1.92773,3.36132 -1.86719,-3.36132 z m 25.30078,0 1.45704,7.86328 h 1.04882 l 1.79883,-6.58789 h 0.0254 l 1.83203,6.58789 h 1.05079 l 1.44921,-7.86328 h -0.79101 l -1.17188,6.6914 h -0.0234 l -1.86719,-6.6914 h -0.82227 l -1.90234,6.73437 h -0.0215 l -1.14062,-6.73437 z m 27.08594,0 v 3.4082 h -0.0234 c -0.12266,-0.33333 -0.44236,-1.0957 -1.45703,-1.0957 -1.36933,0 -1.94922,1.30161 -1.94922,2.84961 0,1.44799 0.37337,2.82617 1.83204,2.82617 1.00533,0 1.46088,-0.80788 1.57421,-1.17188 h 0.0234 v 1.04492 h 0.84375 v -7.86132 z m -57.15039,2.3125 c -0.87733,0 -1.37724,0.77578 -1.50391,1.17578 h -0.0215 v -1.05078 h -0.8457 v 7.86523 h 0.8457 v -3.4082 h 0.0215 c 0.12667,0.34 0.44522,1.09375 1.44922,1.09375 1.40134,0 1.96094,-1.25353 1.96094,-2.76953 0,-1.71067 -0.60492,-2.90625 -1.90625,-2.90625 z m 26.79102,0 c -0.88,0 -1.48219,0.82072 -1.74219,1.41406 h -0.0234 v -1.28906 h -0.84375 V 911.5 h 0.84375 v -2.56641 c 0,-0.99466 0.34201,-1.99609 1.52735,-1.99609 h 0.23828 z m 22.34765,0 c -0.87866,0 -1.48085,0.82072 -1.74218,1.41406 h -0.0234 v -1.28906 h -0.84375 V 911.5 h 0.84375 v -2.56641 c 0,-0.99466 0.34201,-1.99609 1.52734,-1.99609 h 0.23828 z m -75.81445,0.002 c -1.584,0 -2.19727,1.1284 -2.19727,2.67773 0,1.992 1.05712,2.9961 2.67579,2.9961 0.61333,0 0.90365,-0.0901 1.34765,-0.2168 v -0.49023 c -0.32266,0.0787 -0.50214,0.16015 -0.99414,0.16015 -1.67467,0 -2.08398,-1.74345 -2.08398,-2.93945 h 3.17773 c 0,-0.44533 8.9e-4,-2.1875 -1.92578,-2.1875 z m 14.84961,0 c -1.584,0 -2.20117,1.1284 -2.20117,2.67773 0,1.992 1.05907,2.9961 2.67773,2.9961 0.616,0 0.90171,-0.0901 1.3457,-0.2168 v -0.49023 c -0.31866,0.0787 -0.49947,0.16015 -0.99414,0.16015 -1.67066,0 -2.08398,-1.74345 -2.08398,-2.93945 h 3.17773 c 0,-0.44533 8e-4,-2.1875 -1.92187,-2.1875 z m 5.62891,0 c -1.584,0 -2.19922,1.1284 -2.19922,2.67773 0,1.992 1.05906,2.9961 2.67773,2.9961 0.616,0 0.90108,-0.0901 1.34375,-0.2168 v -0.49023 c -0.31867,0.0787 -0.50152,0.16015 -0.99219,0.16015 -1.676,0 -2.08398,-1.74345 -2.08398,-2.93945 h 3.17773 c 0,-0.44533 1.8e-4,-2.1875 -1.92382,-2.1875 z m 19.64453,0 c -1.61734,0 -2.30078,1.16386 -2.30078,2.89453 0,1.75333 0.68344,2.7793 2.30078,2.7793 1.61866,0 2.35937,-1.02597 2.35937,-2.7793 0,-1.73067 -0.74071,-2.89453 -2.35937,-2.89453 z m 28.77539,0 c -1.61734,0 -2.30274,1.16386 -2.30274,2.89453 0,1.75333 0.6854,2.7793 2.30274,2.7793 1.61733,0 2.35937,-1.02597 2.35937,-2.7793 0,-1.73067 -0.74204,-2.89453 -2.35937,-2.89453 z m -24.51367,0.12305 v 3.87304 c 0,0.70934 0.39749,1.67774 1.29882,1.67774 1.08267,0 1.42584,-0.3286 1.95118,-1.44727 h 0.0195 V 911.5 h 0.82226 v -5.42773 h -0.84179 v 2.32617 c 0,1.048 -0.4455,2.52929 -1.4375,2.52929 -0.72934,0 -0.96875,-0.76241 -0.96875,-1.34375 v -3.51171 z m -44.43946,0.33007 c 0.968,0 1.10547,0.76309 1.10547,1.23243 h -2.28125 c 0,-0.296 0.20378,-1.23243 1.17578,-1.23243 z m 14.84766,0 c 0.968,0 1.10351,0.76309 1.10351,1.23243 h -2.27929 c 0,-0.296 0.20511,-1.23243 1.17578,-1.23243 z m 5.6289,0 c 0.96934,0 1.10547,0.76309 1.10547,1.23243 h -2.27734 c 0,-0.296 0.19988,-1.23243 1.17187,-1.23243 z m 19.70118,0.004 c 1.17333,0 1.41211,1.28599 1.41211,2.47266 0,1.11466 -0.23878,2.28515 -1.41211,2.28515 -1.16134,0 -1.35547,-1.17049 -1.35547,-2.28515 0,-1.18667 0.19413,-2.47266 1.35547,-2.47266 z m 28.77539,0 c 1.17066,0 1.41015,1.28599 1.41015,2.47266 0,1.11466 -0.23949,2.28515 -1.41015,2.28515 -1.16267,0 -1.35547,-1.17049 -1.35547,-2.28515 0,-1.18667 0.1928,-2.47266 1.35547,-2.47266 z m -42.43946,0.0859 c 0.788,0 1.17774,1.00427 1.17774,2.34961 0,1.01466 -0.24068,2.23242 -1.16602,2.23242 -1.01466,0 -1.32031,-1.53799 -1.32031,-2.33399 0,-1.10666 0.54593,-2.24804 1.30859,-2.24804 z m 56.03321,0 c 1.01466,0 1.33398,1.55078 1.33398,2.18945 0,1.35733 -0.55834,2.36914 -1.40234,2.36914 -0.86534,0 -1.08399,-1.1386 -1.08399,-2.19726 0,-1.14 0.26301,-2.36133 1.15235,-2.36133 z"
         style="fill:#21368b;fill-opacity:1;fill-rule:nonzero;stroke:none;stroke-width:1.33333325"
         inkscape:connector-curvature="0" /><g
         style="fill:#21368b;fill-opacity:1"
         transform="translate(504.4655,149.5195)"
         id="g232"><path
           inkscape:connector-curvature="0"
           id="path234"
           style="fill:#21368b;fill-opacity:1;fill-rule:nonzero;stroke:none"
           d="M 0,0 C 1.004,0.062 1.433,0.409 2.92,1.072 10.354,4.394 22,6.847 33.252,7.549 15.535,8.094 2.22,2.683 0.199,1.71 -1.477,0.904 -1.174,-0.069 0,0" /></g><path
         id="path246"
         transform="matrix(0.75000002,0,0,-0.75000002,0,841.89002)"
         d="m 683.75977,898.11328 c -0.78697,0.0236 -1.83008,0.57333 -2.70508,1.46875 -0.88534,0.90933 -2.81928,2.96434 -3.72461,4.01367 -0.73867,0.852 -0.64844,0.51172 -0.64844,0.51172 0,0 0.23017,-0.80219 0.82617,-2.88086 0.59734,-2.07866 -1.51038,-2.06796 -2.87304,-1.02929 -1.23334,0.93866 -4.99038,5.08719 -7.37305,7.64453 0,0 2.11521,-3.76308 3.06055,-5.95508 0.64133,-1.48 -1.25081,-2.35197 -2.60547,-1.66797 l -6.46875,3.23437 c -2.22667,1.192 -0.8239,2.06527 0.63476,2.0586 -0.20933,-0.484 0.3125,-1.07227 0.3125,-1.07227 1.008,-0.92533 2.84674,-1.97726 4.44141,-2.69726 1.59467,-0.724 1.82122,-0.61863 1.08789,0.9707 -0.732,1.59067 -3.31445,6.53906 -3.31445,6.53906 -1.57067,2.828 -0.85657,5.11119 1.38476,2.36719 4.1,-5.024 7.39241,-8.36769 8.45508,-9.31836 1.06133,-0.944 1.2874,-0.69439 0.91406,0.21094 -0.36933,0.904 -1.64474,3.27145 -2.1914,4.80078 -0.544,1.528 0.54458,2.02525 2.16992,0.28125 1.86133,-1.99467 4.25909,-4.86018 6.37109,-6.85352 1.13334,-1.07066 1.28113,-0.6726 0.95313,-0.0859 -0.396,0.708 -0.84112,1.63892 -1.81446,3.29492 -0.90266,1.53067 -2.05104,4.02366 -1.98437,5.34766 0.0693,1.32933 0.52396,1.68565 1.5293,1.95898 0.57066,0.156 0.88918,0.0855 0.97851,-0.23047 0.007,-0.007 0.01,-0.006 0.0137,-0.0176 0.244,-0.584 1.25365,-2.72983 2.95899,-3.17383 -1.28,4.30267 2.09514,4.59581 3.61914,3.86914 1.19066,-0.56399 2.32264,-1.83428 2.80664,-3.23828 0.004,-0.005 0.007,-0.005 0.01,-0.008 0.668,-1.17333 2.14286,-2.06961 2.63086,-2.34961 0.48534,-0.28666 0.43247,-0.19019 0.48047,0.11914 0.248,1.712 0.0984,2.84815 0.39844,4.52149 0.296,1.67066 1.44224,0.61732 2.12891,-0.13867 0.97733,-1.08 2.22824,-2.2897 3.01757,-3.06836 0.74,-0.73334 1.04719,-1.02303 1.72852,-1.56836 0.75333,-0.60534 1.13669,-0.7265 1.30469,-0.92383 0.21066,-0.15867 0.42962,-0.33679 0.62695,-0.43945 0.61067,-0.31067 0.87869,0.0732 0.55469,0.92382 0,0 -0.50683,1.08945 -0.79883,2.55078 -0.38933,1.96134 1.29196,2.00586 1.89063,1.50586 1.13066,-0.93733 1.50976,-1.1914 1.50976,-1.1914 0,0 2.61578,-1.87671 3.03711,-2.22071 0.424,-0.344 0.65921,-0.50444 0.42187,0.0742 -0.24133,0.58 -0.63954,1.08612 -1.29687,1.93946 -1.12533,1.81066 0.25097,2.33888 1.04297,1.82421 0.68267,-0.43599 3.25019,-2.75276 4.38086,-3.74609 1.13066,-0.99733 1.29494,-0.77645 1.34961,-0.0645 0.0547,0.72 -0.16605,2.62124 0.86328,3.64258 1.01333,1.004 2.25814,-0.57742 2.99414,-1.21875 0.196,0.90933 0.96669,1.38395 1.69336,1.25195 1.31867,-0.24 3.93843,-2.37222 5.62109,-4.46289 -0.34133,1.34 -0.72774,2.4207 -1.5664,4.08203 -3.45067,1.52133 -5.52333,2.96873 -6.61133,5.55273 -0.94134,2.23334 -0.0611,4.04864 2.46289,2.05665 2.73867,-2.16534 4.15232,-5.24677 4.95898,-6.63477 2.968,-1.13467 6.36791,-1.54694 10.00391,-1.71094 -3.43067,-0.67733 -6.92732,-0.24659 -9.47266,0.44141 0.748,-1.55067 1.28736,-3.37618 1.44336,-3.85352 0.14267,-0.452 0.28125,-1.01367 0.28125,-1.01367 0.3,-1.44267 -0.34633,-1.34859 -0.98633,-0.66992 -0.14933,-0.98667 -1.21331,-0.78831 -2.94531,-0.18164 -0.92533,0.32266 -2.99735,1.31944 -4.41601,3.02344 h -0.006 c -1.388,1.48133 -2.15346,2.12825 -2.32813,1.65625 -0.17466,-0.472 -0.0314,-1.16328 -0.0527,-2.58594 -0.0253,-1.42134 -1.31512,-1.9613 -2.56446,-1.16797 0,0 -1.66617,1.22638 -2.46484,1.87305 -0.79733,0.648 -0.55675,0.0938 -0.46875,-0.15821 0.0867,-0.252 0.19536,-0.94831 -0.0566,-1.45898 -0.572,-1.14133 -1.17061,-0.57224 -1.97461,0.12109 -0.804,0.69334 -3.48834,2.63723 -4.01367,3.08789 -0.52267,0.44667 -1.1123,0.45621 -1.04297,-0.0918 0.064,-0.55067 0.29248,-1.26738 0.89648,-2.85938 0.60534,-1.58933 -0.76175,-2.02818 -1.23242,-1.85351 -0.45066,0.16533 -0.84789,0.47666 -1.72656,1.25 -0.376,-1.292 -1.7664,-0.40683 -2.42773,0.33984 -0.61334,0.69733 -2.48975,3.11132 -3.09375,3.83398 -0.60534,0.724 -0.99579,1.41738 -1.17579,0.60938 -0.23466,-1.06133 -0.0973,-1.7154 0.0801,-3.05274 0.212,-1.57733 -0.99126,-2.33904 -1.94726,-1.62304 -0.736,0.548 -2.26423,1.73267 -2.96289,2.52734 -0.0587,-2.31733 -1.51045,-3.13412 -3.53711,-2.43945 -2.15467,0.73733 -4.79917,2.49408 -6.3125,4.96875 -0.50667,-2.40934 2.48141,-4.91561 3.71875,-8.46094 0.73725,-2.1015 0.14853,-2.94242 -0.86328,-2.91211 z m 20.51953,0.50586 c -0.33121,-0.0406 -0.69373,0.13828 -0.77539,0.67578 -0.0613,0.424 0.1362,0.98901 0.4082,1.26367 0.544,0.55334 0.99182,0.19258 1.14648,-0.24609 0.15334,-0.43867 0.0115,-1.00678 -0.2832,-1.41211 -0.1095,-0.152 -0.29737,-0.25691 -0.49609,-0.28125 z m 21.0332,6.13672 c 0.19125,-0.004 0.26234,0.10481 -0.0977,0.50781 -0.48,0.53867 -2.36202,2.39039 -3.44336,3.01172 -0.736,0.42133 -2.23344,0.54923 -1.05078,-0.77344 1.18134,-1.32133 2.51972,-2.27155 4.37305,-2.71289 0.0787,-0.019 0.155,-0.032 0.21875,-0.0332 z m -36.92969,1.16992 c 0.73206,0.0577 1.24022,0.80495 0.82422,2.00195 -0.556,1.6 -1.48391,2.77999 -2.64258,3.08399 -0.68533,0.18133 -1.27077,0.006 -1.27343,-1.25781 -0.003,-1.35334 1.23721,-3.08115 2.31054,-3.64649 0.26767,-0.143 0.53723,-0.20089 0.78125,-0.18164 z m 35.39453,5.06445 c -1.71466,3.04134 -3.25761,5.05458 -4.48828,5.50391 -0.42533,0.156 -0.71382,0.043 -0.53515,-0.81836 0.39733,-1.91867 3.11543,-4.08821 5.02343,-4.68555 z"
         style="fill:#841a1e;fill-opacity:1;fill-rule:nonzero;stroke:none;stroke-width:1.33333325"
         inkscape:connector-curvature="0" /></g></g></svg>