<?xml version="1.0"?>
<svg xmlns="http://www.w3.org/2000/svg" viewBox="0 0 100 56.948021" width="300" height="170.844063">
<g transform="translate(-324.77857,-593.40898)">
 <g style="fill:#004f7b;fill-rule:nonzero;stroke:none">
  <path d="M 324.77857,633.12495 L 326.09154,633.12495 L 328.04759,639.11638 L 329.99025,633.12495 L 331.30322,633.12495 L 331.30322,640.21097 L 330.41898,640.21097 L 330.41898,636.02956 C 330.41898,635.88487 330.43237,635.64505 330.43237,635.31145 C 330.44577,634.97651 330.44577,634.61745 330.44577,634.23428 L 328.50311,640.21097 L 327.59207,640.21097 L 325.63602,634.23428 L 325.63602,634.45132 L 325.63602,635.2458 C 325.64942,635.60084 325.66281,635.86209 325.66281,636.02956 L 325.66281,640.21097 L 324.77857,640.21097 L 324.77857,633.12495" />
  <path d="M 332.97793,640.21097 L 333.91576,640.21097 L 333.91576,633.12495 L 332.97793,633.12495 L 332.97793,640.21097 z" />
  <path d="M 335.49668,633.12495 L 336.58189,633.12495 L 339.9581,638.84709 L 339.9581,633.12495 L 340.84234,633.12495 L 340.84234,640.21097 L 339.81072,640.21097 L 336.36753,634.49151 L 336.36753,640.21097 L 335.49668,640.21097 L 335.49668,633.12495 z" />
  <path d="M 342.62557,640.21097 L 343.56206,640.21097 L 343.56206,633.12495 L 342.62557,633.12495 L 342.62557,640.21097 z" />
  <path d="M 345.73248,637.92533 C 345.74588,638.3286 345.83966,638.6555 346.00043,638.90738 C 346.28179,639.37629 346.80429,639.61209 347.55456,639.61209 C 347.8895,639.61209 348.18425,639.56118 348.4656,639.45802 C 348.98945,639.25705 349.25606,638.89934 349.25606,638.38353 C 349.25606,637.99768 349.14888,637.72168 348.92112,637.55689 C 348.69336,637.39612 348.34502,637.25545 347.84931,637.13621 L 346.96507,636.91917 C 346.37557,636.77715 345.96024,636.62174 345.71908,636.45025 C 345.3051,636.15416 345.0894,635.71204 345.0894,635.1212 C 345.0894,634.48615 345.3051,633.96231 345.71908,633.55502 C 346.12101,633.14505 346.71051,632.94141 347.46078,632.94141 C 348.15612,632.94141 348.74695,633.11959 349.22927,633.47865 C 349.71158,633.83771 349.95274,634.41113 349.95274,635.20025 L 349.09529,635.20025 C 349.0551,634.81975 348.96131,634.52903 348.81394,634.32538 C 348.53259,633.95427 348.07707,633.76938 347.43398,633.76938 C 346.91147,633.76938 346.53634,633.88996 346.30992,634.1271 C 346.08082,634.36691 345.97498,634.64291 345.97498,634.95775 C 345.97498,635.30609 346.10762,635.56198 346.37557,635.72276 C 346.54974,635.82458 346.95167,635.95453 347.56796,636.10995 L 348.49106,636.33637 C 348.94792,636.44623 349.29625,636.59494 349.52401,636.78519 C 349.95274,637.11745 350.16576,637.59843 350.16576,638.22945 C 350.16576,639.0159 349.88575,639.57726 349.36324,639.91756 C 348.826,640.25518 348.19765,640.42265 347.48623,640.42265 C 346.67032,640.42265 346.01383,640.19891 345.55831,639.74607 C 345.0894,639.29859 344.86164,638.69301 344.86164,637.92533 L 345.73248,637.92533" />
  <path d="M 356.47739,633.12495 L 356.47739,633.96498 L 354.18505,633.96498 L 354.18505,640.21097 L 353.24856,640.21097 L 353.24856,633.96498 L 350.95756,633.96498 L 350.95756,633.12495 L 356.47739,633.12495 z" />
  <path d="M 360.49668,636.37254 C 360.92541,636.37254 361.24695,636.28412 361.50151,636.10325 C 361.74266,635.9264 361.86324,635.60218 361.86324,635.13594 C 361.86324,634.63353 361.68907,634.29055 361.35413,634.10834 C 361.16657,634.01188 360.92541,633.96498 360.61726,633.96498 L 358.43345,633.96498 L 358.43345,636.37254 L 360.49668,636.37254 z M 357.52241,633.12495 L 360.60386,633.12495 C 361.11298,633.12495 361.5283,633.20534 361.86324,633.36209 C 362.47953,633.66622 362.80108,634.2249 362.80108,635.0368 C 362.80108,635.4615 362.70729,635.80984 362.54652,636.07913 C 362.37235,636.34843 362.14459,636.56815 361.83645,636.7316 C 362.1044,636.84414 362.29197,636.99151 362.42594,637.17506 C 362.55858,637.35861 362.64031,637.6547 362.6537,638.066 L 362.6939,639.01188 C 362.6939,639.28251 362.72203,639.48481 362.76089,639.61745 C 362.81448,639.84387 362.90826,639.98856 363.05697,640.05153 L 363.05697,640.21097 L 361.93023,640.21097 C 361.8887,640.14934 361.86324,640.07163 361.84985,639.97651 C 361.82305,639.8787 361.80965,639.69248 361.79625,639.41783 L 361.74266,638.23749 C 361.72927,637.77259 361.56849,637.46445 361.26035,637.30636 C 361.09958,637.22061 360.83162,637.1764 360.46989,637.1764 L 358.43345,637.1764 L 358.43345,640.21097 L 357.52241,640.21097 L 357.52241,633.12495" />
  <path d="M 363.63173,633.12495 L 364.71694,633.12495 L 366.673,636.53063 L 368.62905,633.12495 L 369.71426,633.12495 L 367.12852,637.35459 L 367.12852,640.21097 L 366.21748,640.21097 L 366.21748,637.35459 L 363.63173,633.12495 z" />
  <path d="M 377.90022,638.6555 C 378.26196,638.04725 378.44952,637.35057 378.44952,636.56145 C 378.44952,635.72544 378.23516,635.05421 377.81983,634.54376 C 377.40451,634.03465 376.82841,633.7801 376.10494,633.7801 C 375.39486,633.7801 374.83216,634.03197 374.37664,634.53572 C 373.93452,635.04082 373.72016,635.78438 373.72016,636.76777 C 373.72016,637.55555 373.90772,638.2174 374.28152,638.75732 C 374.67139,639.29725 375.28634,639.56788 376.14513,639.56788 C 376.94899,639.56788 377.53848,639.26375 377.90022,638.6555 M 378.71748,634.13915 C 379.173,634.76616 379.40076,635.56868 379.40076,636.54671 C 379.40076,637.60512 379.13414,638.48669 378.62369,639.18739 C 378.0208,640.01134 377.14995,640.42265 376.03795,640.42265 C 374.97953,640.42265 374.16228,640.06359 373.55938,639.3428 C 373.02348,638.64612 372.75553,637.76724 372.75553,636.70614 C 372.75553,635.74821 372.98329,634.92694 373.4522,634.245 C 374.0417,633.37013 374.89915,632.93069 376.05135,632.93069 C 377.25713,632.93069 378.14138,633.33396 378.71748,634.13915" />
  <path d="M 380.66013,633.12495 L 385.3761,633.12495 L 385.3761,633.99044 L 381.57117,633.99044 L 381.57117,636.14344 L 384.92059,636.14344 L 384.92059,636.98213 L 381.57117,636.98213 L 381.57117,640.21097 L 380.66013,640.21097 L 380.66013,633.12495 z" />
  <path d="M 389.16764,633.12495 L 390.10547,633.12495 L 390.10547,636.05636 L 393.58886,636.05636 L 393.58886,633.12495 L 394.52669,633.12495 L 394.52669,640.21097 L 393.58886,640.21097 L 393.58886,636.89505 L 390.10547,636.89505 L 390.10547,640.21097 L 389.16764,640.21097 L 389.16764,633.12495 z" />
  <path d="M 396.16121,633.12495 L 401.10494,633.12495 L 401.10494,633.99044 L 397.05751,633.99044 L 397.05751,636.14344 L 400.79679,636.14344 L 400.79679,636.96338 L 397.05751,636.96338 L 397.05751,639.37227 L 401.17192,639.37227 L 401.17192,640.21097 L 396.16121,640.21097 L 396.16121,633.12495 z" />
  <path d="M 405.99508,637.3077 L 404.95006,634.17667 L 403.86485,637.3077 L 405.99508,637.3077 z M 404.46774,633.12495 L 405.51276,633.12495 L 407.97793,640.21097 L 406.9731,640.21097 L 406.26437,638.0928 L 403.58484,638.0928 L 402.84663,640.21097 L 401.91013,640.21097 L 404.46774,633.12495 z" />
  <path d="M 408.88897,633.12495 L 409.80001,633.12495 L 409.80001,639.37227 L 413.2164,639.37227 L 413.2164,640.21097 L 408.88897,640.21097 L 408.88897,633.12495 z" />
  <path d="M 418.48168,633.12495 L 418.48168,633.96498 L 416.19068,633.96498 L 416.19068,640.21097 L 415.25285,640.21097 L 415.25285,633.96498 L 412.96319,633.96498 L 412.96319,633.12495 L 418.48168,633.12495 z" />
  <path d="M 419.43291,633.12495 L 420.37075,633.12495 L 420.37075,636.05636 L 423.85279,636.05636 L 423.85279,633.12495 L 424.77857,633.12495 L 424.77857,640.21097 L 423.85279,640.21097 L 423.85279,636.89505 L 420.37075,636.89505 L 420.37075,640.21097 L 419.43291,640.21097 L 419.43291,633.12495 z" />
 </g>
 <g style="fill:#91bc3e;fill-rule:nonzero;stroke:none">
  <path d="M 352.56528,648.35673 C 352.57868,648.68095 352.64567,648.94087 352.76624,649.14183 C 353.00874,649.51965 353.40933,649.70721 353.98543,649.70721 C 354.25338,649.70721 354.49454,649.66568 354.7089,649.58396 C 355.12423,649.42318 355.32519,649.13915 355.32519,648.72785 C 355.32519,648.41836 355.24481,648.19864 355.05724,648.06868 C 354.88307,647.93873 354.60172,647.82753 354.22659,647.73374 L 353.52991,647.55823 C 353.07439,647.44703 352.73945,647.32109 352.55188,647.18444 C 352.23034,646.9473 352.05617,646.5936 352.05617,646.12067 C 352.05617,645.61156 352.21694,645.19087 352.55188,644.86397 C 352.87343,644.5384 353.32895,644.37495 353.91844,644.37495 C 354.46774,644.37495 354.92326,644.51697 355.3118,644.80502 C 355.68827,645.09173 355.8745,645.55127 355.8745,646.18229 L 355.20462,646.18229 C 355.16442,645.87817 355.08404,645.64639 354.97686,645.48428 C 354.76249,645.18819 354.40076,645.04082 353.89165,645.04082 C 353.48972,645.04082 353.19497,645.1346 353.0208,645.32485 C 352.83323,645.51643 352.75285,645.73615 352.75285,645.98937 C 352.75285,646.26804 352.84529,646.47034 353.06099,646.6003 C 353.20837,646.68203 353.51517,646.78653 353.99883,646.90845 L 354.7357,647.09065 C 355.08404,647.17774 355.35333,647.29698 355.53956,647.44971 C 355.8745,647.71365 356.03527,648.0995 356.03527,648.60325 C 356.03527,649.23294 355.82091,649.68042 355.40558,649.94971 C 354.99025,650.22034 354.49454,650.357 353.94524,650.357 C 353.30215,650.357 352.79304,650.17747 352.41791,649.81574 C 352.05617,649.45802 351.882,648.97034 351.882,648.35673 L 352.56528,648.35673" />
  <path d="M 357.32144,650.18819 L 358.04492,650.18819 L 358.04492,644.51831 L 357.32144,644.51831 L 357.32144,650.18819 z" />
  <path d="M 359.31769,644.51429 L 360.17514,644.51429 L 362.82787,649.10164 L 362.82787,644.51429 L 363.52455,644.51429 L 363.52455,650.18819 L 362.70729,650.18819 L 360.01437,645.6062 L 360.01437,650.18819 L 359.31769,650.18819 L 359.31769,644.51429 z" />
  <path d="M 368.3477,644.67774 C 368.87021,644.97383 369.17836,645.495 369.29893,646.23455 L 368.58752,646.23455 C 368.50847,645.8219 368.32091,645.52045 368.05295,645.33154 C 367.785,645.14398 367.45006,645.04885 367.04813,645.04885 C 366.55242,645.04885 366.15049,645.24446 365.81555,645.63835 C 365.494,646.0309 365.31983,646.61906 365.31983,647.39746 C 365.31983,648.07136 365.45381,648.62067 365.7365,649.04269 C 366.00311,649.46606 366.45863,649.67774 367.07627,649.67774 C 367.54384,649.67774 367.93237,649.52769 368.24052,649.2316 C 368.54867,648.93417 368.70944,648.45453 368.72284,647.79001 L 367.04813,647.79001 L 367.04813,647.15362 L 369.39272,647.15362 L 369.39272,650.18819 L 368.92246,650.18819 L 368.75097,649.45802 C 368.50847,649.74339 368.29411,649.94033 368.10654,650.05153 C 367.7984,650.24312 367.41121,650.33824 366.92755,650.33824 C 366.29786,650.33824 365.76196,650.12254 365.31983,649.68578 C 364.82412,649.13915 364.58296,648.39157 364.58296,647.43899 C 364.58296,646.4891 364.82412,645.73347 365.30644,645.17211 C 365.74856,644.63621 366.33806,644.36959 367.06153,644.36959 C 367.55724,644.36959 367.98597,644.47142 368.3477,644.67774" />
  <path d="M 373.42541,647.85834 L 372.60681,645.35566 L 371.76544,647.85834 L 373.42541,647.85834 z M 372.23302,644.51429 L 373.05027,644.51429 L 374.97953,650.18819 L 374.20247,650.18819 L 373.63977,648.48535 L 371.54974,648.48535 L 370.97364,650.18819 L 370.23677,650.18819 L 372.23302,644.51429 z" />
  <path d="M 378.6103,645.29537 C 378.44952,645.21632 378.23516,645.17613 377.96587,645.17613 L 376.53366,645.17613 L 376.53366,647.13889 L 377.96587,647.13889 C 378.28875,647.13889 378.54331,647.06654 378.74427,646.91917 C 378.94524,646.77313 379.03902,646.51456 379.03902,646.14612 C 379.03902,645.72811 378.89165,645.44542 378.6103,645.29537 M 375.81019,644.51429 L 378.19497,644.51429 C 378.66389,644.51429 379.05242,644.65764 379.33377,644.94167 C 379.62852,645.22436 379.77589,645.62495 379.77589,646.13942 C 379.77589,646.58154 379.64057,646.9674 379.38736,647.29564 C 379.11941,647.62388 378.73087,647.79001 378.19497,647.79001 L 376.53366,647.79001 L 376.53366,650.18819 L 375.81019,650.18819 L 375.81019,644.51429" />
  <path d="M 384.55885,648.93953 C 384.8402,648.45453 384.98757,647.89451 384.98757,647.26348 C 384.98757,646.59628 384.8134,646.05904 384.4932,645.65041 C 384.15826,645.24312 383.7148,645.04082 383.1387,645.04082 C 382.5894,645.04082 382.13388,645.24044 381.78554,645.64505 C 381.4372,646.04832 381.26303,646.64183 381.26303,647.42962 C 381.26303,648.05796 381.4238,648.58717 381.71855,649.01992 C 382.0133,649.45132 382.49561,649.66836 383.16549,649.66836 C 383.80858,649.66836 384.2641,649.42318 384.55885,648.93953 M 385.18854,645.32619 C 385.53688,645.8286 385.72444,646.47034 385.72444,647.25277 C 385.72444,648.10084 385.51008,648.80555 385.10815,649.36691 C 384.63923,650.02608 383.96935,650.357 383.08511,650.357 C 382.26785,650.357 381.62477,650.06895 381.14379,649.49017 C 380.72712,648.93417 380.52616,648.23213 380.52616,647.38138 C 380.52616,646.6137 380.70033,645.95721 381.06206,645.41059 C 381.51758,644.71123 382.20086,644.35888 383.09851,644.35888 C 384.03634,644.35888 384.73302,644.68176 385.18854,645.32619" />
  <path d="M 389.12744,647.11343 C 389.44899,647.11343 389.71694,647.04108 389.90451,646.89907 C 390.09207,646.75303 390.1872,646.49312 390.1872,646.11665 C 390.1872,645.71472 390.05188,645.43873 389.78393,645.29135 C 389.63655,645.21498 389.44899,645.17613 389.20783,645.17613 L 387.50767,645.17613 L 387.50767,647.11343 L 389.12744,647.11343 z M 386.76946,644.51429 L 389.19443,644.51429 C 389.59636,644.51429 389.9313,644.57726 390.1872,644.70453 C 390.68157,644.94435 390.92273,645.39183 390.92273,646.0443 C 390.92273,646.38326 390.85708,646.66193 390.72176,646.87763 C 390.60119,647.09333 390.41362,647.2675 390.17246,647.40014 C 390.38682,647.48856 390.5342,647.60646 390.64138,647.7525 C 390.74856,647.90121 390.80215,648.13835 390.81555,648.46793 L 390.84234,649.23294 C 390.85708,649.44596 390.86914,649.60807 390.89593,649.71257 C 390.93613,649.89344 391.01651,650.01 391.12369,650.05957 L 391.12369,650.18819 L 390.23945,650.18819 C 390.21265,650.13862 390.19926,650.07699 390.1872,649.99928 C 390.17246,649.92024 390.15906,649.77152 390.14567,649.55046 L 390.10547,648.60325 C 390.09207,648.23347 389.9581,647.98428 389.73034,647.857 C 389.59636,647.79001 389.382,647.7525 389.10065,647.7525 L 387.50767,647.7525 L 387.50767,650.18819 L 386.76946,650.18819 L 386.76946,644.51429" />
  <path d="M 392.2223,644.51429 L 396.09422,644.51429 L 396.09422,645.21231 L 392.93237,645.21231 L 392.93237,646.93256 L 395.85306,646.93256 L 395.85306,647.59039 L 392.93237,647.59039 L 392.93237,649.51831 L 396.14781,649.51831 L 396.14781,650.18819 L 392.2223,650.18819 L 392.2223,644.51429 z" />
  <path d="M 383.35306,609.85995 C 383.35306,618.94355 379.03902,626.30689 373.72016,626.30689 C 368.38789,626.30689 364.08725,618.94355 364.08725,609.85995 C 364.08725,600.77367 368.38789,593.40898 373.72016,593.40898 C 379.03902,593.40898 383.35306,600.77367 383.35306,609.85995" />
 </g>
 <path style="fill:#bae0e9;fill-rule:nonzero;stroke:none"
       d="M 382.46882,609.85995 C 382.46882,618.5309 378.55671,625.56064 373.72016,625.56064 C 368.88361,625.56064 364.9581,618.5309 364.9581,609.85995 C 364.9581,601.18631 368.88361,594.15657 373.72016,594.15657 C 378.55671,594.15657 382.46882,601.18631 382.46882,609.85995" />
 <path style="fill:#004f7b;fill-rule:nonzero;stroke:none"
       d="M 373.72016,625.56064 C 368.88361,625.56064 364.9581,618.5309 364.9581,609.85995 C 364.9581,601.18631 368.88361,594.15657 373.72016,594.15657 L 373.72016,625.56064" />
 <path style="fill:none;stroke:#FFF;stroke-width:0.56538045;stroke-linecap:butt;stroke-linejoin:miter;stroke-miterlimit:4;stroke-dasharray:none"
       d="M 382.46882,609.85995 C 382.46882,618.5309 378.55671,625.56064 373.72016,625.56064 C 368.88361,625.56064 364.9581,618.5309 364.9581,609.85995 C 364.9581,601.18631 368.88361,594.15657 373.72016,594.15657 C 378.55671,594.15657 382.46882,601.18631 382.46882,609.85995 z" />
 <path style="fill:#00527f;fill-rule:nonzero;stroke:none"
       d="M 376.49347,624.57332 L 376.49347,620.02876 C 376.49347,615.22838 382.10035,613.35406 382.10035,613.35406 L 382.20933,608.03874 L 378.46426,609.86397 C 378.46426,609.86397 374.97953,611.55743 374.97953,616.54403 L 374.97953,625.26977 L 376.49347,624.57332 z" />
 <path style="fill:none;stroke:#FFF;stroke-width:0.56538045;stroke-linecap:butt;stroke-linejoin:miter;stroke-miterlimit:4;stroke-dasharray:none"
       d="M 376.49347,624.6521 L 376.49347,620.02876 C 376.49347,615.22838 382.21853,613.47223 382.21853,613.47223 C 382.21853,613.47223 382.43462,611.63015 382.44911,610.79299 C 382.46361,609.95583 382.37847,607.86635 382.37847,607.86635 L 378.46426,609.86397 C 378.46426,609.86397 374.97953,611.55743 374.97953,616.54403 L 374.97953,625.19099 L 376.49347,624.6521 z" />
 <path style="fill:#bae0e9;fill-rule:nonzero;stroke:none"
       d="M 370.76062,624.41576 L 370.76062,620.02876 C 370.76062,615.22838 365.19179,613.5904 365.19179,613.5904 L 365.1356,608.19629 L 368.78982,609.86397 C 368.78982,609.86397 372.27187,611.55743 372.27187,616.54403 L 372.27187,625.23038 L 370.76062,624.41576 z" />
 <path style="fill:none;stroke:#FFF;stroke-width:0.56538045;stroke-linecap:butt;stroke-linejoin:miter;stroke-miterlimit:4;stroke-dasharray:none"
       d="M 370.76062,624.41576 L 370.76062,620.02876 C 370.76062,615.22838 365.19179,613.45416 365.19179,613.45416 C 365.19179,613.45416 364.97281,611.53494 364.96439,610.70219 C 364.95597,609.86944 365.04524,607.84828 365.04524,607.84828 L 368.78982,609.86397 C 368.78982,609.86397 372.27187,611.55743 372.27187,616.54403 L 372.27187,625.07282 L 370.76062,624.41576 z M 373.61164,594.15657 L 373.61164,625.56064" />
 <path style="fill:#e5352c;fill-rule:nonzero;stroke:none"
       d="M 377.77964,603.19864 C 377.77964,606.93122 375.93077,609.95641 373.63977,609.95641 C 371.36217,609.95641 369.5133,606.93122 369.5133,603.19864 C 369.5133,599.4674 371.36217,596.44087 373.63977,596.44087 C 375.93077,596.44087 377.77964,599.4674 377.77964,603.19864" />
 <path style="fill:none;stroke:#FFF;stroke-width:0.56538045;stroke-linecap:butt;stroke-linejoin:miter;stroke-miterlimit:4;stroke-dasharray:none"
       d="M 377.77964,603.19864 C 377.77964,606.93122 375.93077,609.95641 373.63977,609.95641 C 371.36217,609.95641 369.5133,606.93122 369.5133,603.19864 C 369.5133,599.4674 371.36217,596.44087 373.63977,596.44087 C 375.93077,596.44087 377.77964,599.4674 377.77964,603.19864 z M 382.46882,609.85995 C 382.46882,618.5309 378.55671,625.56064 373.72016,625.56064 C 368.88361,625.56064 364.9581,618.5309 364.9581,609.85995 C 364.9581,601.18631 368.88361,594.15657 373.72016,594.15657 C 378.55671,594.15657 382.46882,601.18631 382.46882,609.85995 z" />
</g>
</svg>