<svg version="1.1" xmlns="http://www.w3.org/2000/svg" xmlns:xlink="http://www.w3.org/1999/xlink" width="1000.45199" height="380.02687" viewBox="0,0,1000.45199,380.02687"><g transform="translate(260.226,10.01344)"><g fill="#1ed760" fill-rule="nonzero" stroke="none" stroke-width="1" stroke-linecap="butt" stroke-linejoin="miter" stroke-miterlimit="10" stroke-dasharray="" stroke-dashoffset="0" style="mix-blend-mode: normal"><path d="M99.28038,261.24942c-12.11367,0 -20.72369,-3.91492 -26.45428,-7.81569l6.38308,-11.61012c4.68802,3.26954 11.33349,6.52494 19.42582,6.52494c6.63129,0 14.19877,-2.73765 14.19877,-9.90797c0,-12.2555 -20.85137,-14.4683 -31.27706,-26.20605c-3.39013,-3.77312 -5.60291,-8.73063 -5.60291,-15.36903c0,-12.78032 10.02854,-23.60316 28.0217,-23.60316c9.1207,0 16.41867,2.21987 21.12087,4.82276l-0.2695,14.08531c-6.65257,-3.64545 -13.04274,-6.00009 -20.06412,-6.00009c-6.915,0 -12.39026,3.00003 -12.39026,8.7377c0,15.90096 37.14238,14.99313 37.14238,41.70275c0,15.12788 -13.29097,24.63866 -30.23449,24.63866"/><path d="M225.92551,187.21288h-23.46133v72.73865h-15.90805v-72.73865h-24.89398v-13.17041h68.03648z"/><path d="M309.15582,259.9494l-8.46821,-21.51096h-30.63875l-7.95046,21.51096h-15.51087l33.3622,-86.29205h11.47533l34.53242,86.29205zM288.8222,205.84932c-1.57449,-4.29794 -2.60289,-7.81573 -3.26247,-10.68101h-0.12767c-0.52482,3.00004 -1.69507,6.38307 -3.1348,10.43279l-7.41854,19.92936h20.85137z"/><path d="M407.37713,259.95084c-13.29807,-22.15636 -19.29106,-32.85156 -22.55353,-33.89413h-7.29798v33.89413h-15.76619v-85.90199h23.19891c22.2911,0 30.63167,11.07817 30.63167,24.24858c0,11.47535 -7.81573,19.16342 -15.90096,22.54645v0.13474c3.91495,2.2128 12.51083,17.06411 25.68123,38.97223zM385.35552,187.35402h-7.8299v26.71669h7.96464c8.07105,0 14.1988,-6.13485 14.1988,-13.95765c0,-7.02848 -4.55326,-12.75904 -14.33354,-12.75904"/><path d="M515.9007,259.94728v-36.7523h-41.57508v36.7523h-15.78036v-85.90196h15.78036v35.4615h41.57508v-35.4615h15.76619v85.90196z"/><path d="M635.36344,251.73438c-5.98592,6.00009 -14.85836,9.51078 -27.6316,9.51078c-12.12784,0 -20.9932,-2.85821 -26.73087,-8.46821c-6.12064,-5.85825 -8.46113,-14.85836 -8.46113,-24.36913v-54.35542h15.76618v53.30576c0,6.26251 1.69505,11.34769 5.08519,15.12788c3.26247,3.51069 8.34055,5.3476 14.60306,5.3476c7.29087,0 12.37606,-1.95747 15.63853,-5.3476c3.24827,-3.52486 4.56744,-8.34765 4.56744,-14.34774v-54.0859h15.76618v53.57525c0,9.78028 -2.73765,18.24849 -8.60297,24.10674"/><path d="M709.72909,259.94515h-27.24862v-85.89489h27.37627c16.82293,0 24.76633,10.94344 24.76633,21.38329c0,7.42565 -3.64543,14.33354 -10.69519,17.85132v0.12767c9.51787,2.2128 16.29811,10.55334 16.29811,20.7237c0,12.2555 -8.85829,25.8089 -30.49691,25.8089M705.9489,187.35543h-7.68806v22.41169h9.37602c5.61,0 11.20585,-4.55326 11.20585,-11.34059c0,-6.51074 -4.17027,-11.0711 -12.8938,-11.0711M708.94184,222.92332h-10.68101v23.72376h10.02852c10.55334,0 15.78036,-4.68803 15.78036,-12.51083c0,-6.6455 -5.48234,-11.21292 -15.12788,-11.21292"/><path d="M20.73385,116.97425c3.50358,10.54625 -5.11356,19.42583 -11.58174,24.63867c-7.56748,6.10647 -18.02155,11.95759 -28.14225,16.81583c-13.05692,6.31214 -26.36211,11.56046 -34.2913,14.62434c4.4185,12.58883 13.67398,39.71692 21.85849,67.41235c5.61,19.09248 10.71649,38.47572 13.15623,53.64616c1.29079,7.61713 2.00003,14.77328 1.70216,20.40456c-0.25532,4.46105 -1.33334,12.41864 -8.12778,15.5889c-3.37593,1.54611 -6.68805,1.03546 -8.98596,0.26239c-2.34046,-0.76597 -4.5036,-2.02128 -6.41852,-3.43266c-3.77312,-2.74472 -7.92212,-6.92209 -12.23422,-11.65267c-8.60297,-9.55333 -18.45419,-22.73082 -27.72382,-35.94378c-5.68804,-8.03557 -11.26259,-16.25559 -16.25555,-23.71668l-5.06391,74.48339l-45.48293,39.90837l-7.75189,-100.28517c17.76621,-17.31941 34.0856,-34.48988 45.73825,-48.06454c0,0 5.46817,8.80153 13.44701,21.21307c20.33362,31.09267 57.24199,85.07219 67.41235,80.25651c18.05699,-8.46821 -35.17073,-154.73986 -35.17073,-154.73986c0,0 83.36293,-28.84438 76.63943,-49.00072c-5.66676,-16.98608 -99.29226,-9.04269 -99.29226,-9.04269l-0.27661,-1.12768c-2.13479,-9.02851 -16.38319,-67.87334 -28.83728,-64.11443c-15.29099,4.53909 -28.54651,69.34855 -28.54651,69.34855c-5.35469,0.41136 -13.39735,1.66667 -22.76629,3.50358l-9.94341,-127.97351l96.91631,20.0003l-6.39017,92.64676c14.10659,-0.80852 34.5466,-1.87946 47.29857,-1.80853c12.51082,0.10639 25.29116,0.68793 35.17783,2.35463c5.11356,0.87945 9.95049,2.17733 13.93637,3.8653c3.67381,1.68798 8.24127,4.63128 10.00015,9.92923"/><path d="M-254.778,152.44428c0.86525,-12.66686 53.71709,-27.71671 88.52611,-34.48277l11.63848,151.76819c-44.53257,43.48291 -97.55464,87.61831 -104.6824,76.93021c-12.05691,-18.1492 97.07944,-174.83237 97.07944,-174.83237c-8.9292,1.03547 -93.78151,-0.2766 -92.56163,-19.38326"/></g></g></svg>