<?xml version="1.0" encoding="UTF-8"?>
<svg width="117.16506" height="35.591999" version="1.1" viewBox="0 0 117.16506 35.591999" xml:space="preserve" xmlns="http://www.w3.org/2000/svg"><g transform="matrix(1.3333333,0,0,-1.3333333,-619.84318,84.009065)"><g fill="#828285"><path d="m497.3792 55.3064c1.56 0 2.623 0.765 2.623 1.876v4.338h-1.363v-4.329c0-0.658-0.532-1.014-1.202-1.014-0.659 0-1.214 0.356-1.214 1.014v4.329h-1.468v-4.338c0-1.111 1.064-1.876 2.624-1.876"/><path transform="matrix(.75000002 0 0 -.75000002 464.8824 63.0068)" d="m50.294922 3.671875c-0.952 0-1.746339 0.1573281-2.263672 0.3613281v6.1074219h1.503906v-2.8925781h0.025391l2.347656 2.8925781h1.699219l-2.46875-2.8261719v-0.0195312c1.313333-0.0653334 2.214844-0.7215469 2.214844-1.6855469 0-1.196-0.998594-1.9375-3.058594-1.9375zm0 0.6757812c1.121333 0 1.566406 0.4257397 1.566406 1.3164063 0 0.852-0.579766 1.34375-1.759766 1.34375-0.229333 0-0.470406-0.0202083-0.566406-0.046875v-2.5019531c0.181334-0.0653334 0.434433-0.1113282 0.759766-0.1113282z"/><path transform="matrix(.75000002 0 0 -.75000002 464.8824 63.0068)" d="m56.583984 3.671875c-1 0-1.855994 0.1493281-2.361328 0.3613281v5.8378907c0.565334 0.2320002 1.409031 0.3613282 2.457032 0.3613282 1.891999 0 3.167968-0.5646512 3.167968-1.8339845 0-0.9266666-1.059692-1.4839478-1.818359-1.6132813v-0.0175781c0.698667-0.1213333 1.542969-0.5752656 1.542969-1.4472656 0-0.944-0.988282-1.6484375-2.988282-1.6484375zm0 0.6679688c1 0 1.517578 0.3506875 1.517578 1.0546874 0 0.7693334-0.494177 1.1588594-1.964843 1.1308594l-0.46875-0.0097656v-2.0664062c0.277333-0.0733334 0.554682-0.109375 0.916015-0.109375zm-0.447265 2.7519531c1.566666-0.028 2.18164 0.4071094 2.18164 1.2871093 0 0.8253335-0.6995 1.1308594-1.6875 1.1308594-0.409333 0-0.697557-0.0364739-0.96289-0.1191406v-2.2910156l0.46875-0.0078125z"/><path transform="matrix(.75000002 0 0 -.75000002 464.8824 63.0068)" d="m62.65625 3.7636719-2.748047 6.3769531h1.373047l0.662109-1.640625h2.675782l0.638671 1.640625h1.578126l-2.734376-6.3769531h-1.445312zm0.650391 1.0390625h0.023437s0.036797 0.2955781 0.216797 0.7675781l0.855469 2.2441406h-2.216797l0.890625-2.2441406c0.192-0.472 0.230469-0.7675781 0.230469-0.7675781z"/><path d="m516.2742 58.4664c0 0.285-0.036 0.557-0.036 0.557h0.018s0.153-0.265 0.361-0.536l2.358-3.086h0.922v4.782h-0.958v-2.884c0-0.278 0.027-0.508 0.027-0.508h-0.018s-0.126 0.216-0.334 0.487l-2.223 2.905h-1.084v-4.782h0.967z"/><path transform="matrix(.75000002 0 0 -.75000002 464.8824 63.0068)" d="m42.757812 13.613281c-1.217333 0-2.231864 0.201558-2.894531 0.462891v7.810547h1.923828v-3.699219h0.03125l3.00586 3.699219h2.171875l-3.158203-3.615235v-0.023437c1.68-0.082667 2.835937-0.926203 2.835937-2.158203 0-1.529334-1.280016-2.476563-3.916016-2.476563zm0 0.865235c1.433334 0 2.003907 0.544307 2.003907 1.68164 0 1.090667-0.739334 1.71875-2.25 1.71875-0.292 0-0.60061-0.022594-0.72461-0.058594v-3.199218c0.232-0.084 0.554704-0.142578 0.970703-0.142578z"/><path d="m503.5682 47.1854h-1.88v1.571h1.672v0.584h-1.672v1.446h1.88v0.59h-3.027v-4.781h3.027z"/><path transform="matrix(.75000002 0 0 -.75000002 464.8824 63.0068)" d="m54.640625 15.414062c-0.952 0-1.724292 0.147995-2.265625 0.361329v5.83789c0.505333 0.222667 1.325609 0.361328 2.349609 0.361328 2.505334 0 3.50586-1.427505 3.50586-3.326171 0-1.909334-1.084511-3.234376-3.589844-3.234376zm0.037109 0.769532c1.385334 0 1.998047 0.786646 1.998047 2.445312 0 1.733334-0.553276 2.53125-1.974609 2.53125-0.325333 0-0.627261-0.048416-0.808594-0.09375v-4.791015c0.217333-0.064 0.459823-0.091797 0.785156-0.091797z"/><path d="m512.2142 47.1854h-1.879v1.571h1.672v0.584h-1.672v1.446h1.879v0.59h-3.027v-4.781h3.027z"/><path d="m517.0032 51.3764h-1.093l-1.03-3.071c-0.091-0.278-0.163-0.605-0.163-0.605h-0.018s-0.072 0.327-0.163 0.605l-1.012 3.071h-1.22l1.871-4.781h0.994z"/><path d="m520.3462 50.7864v0.59h-3.027v-4.781h3.027v0.59h-1.879v1.571h1.671v0.584h-1.671v1.446z"/><path d="m522.1172 51.3764h-1.157v-4.781h2.874v0.59h-1.717z"/><path transform="matrix(.75000002 0 0 -.75000002 464.8824 63.0068)" d="m82.083984 15.414062c-2.229333 0-3.121093 1.472631-3.121093 3.279297 0 1.817334 0.89176 3.28125 3.121093 3.28125 2.228 0 3.107422-1.463916 3.107422-3.28125 0-1.806666-0.879422-3.279297-3.107422-3.279297zm0 0.779297c1.276 0 1.554688 1.268844 1.554688 2.464844 0 1.185333-0.241354 2.445313-1.554688 2.445313-1.313333 0-1.566406-1.25998-1.566406-2.445313 0-1.196 0.289073-2.464844 1.566406-2.464844z"/><path transform="matrix(.75000002 0 0 -.75000002 464.8824 63.0068)" d="m88.324219 15.414062c-0.952 0-1.758396 0.147995-2.289063 0.361329v6.107421h1.494141v-2.521484l0.324219 0.019531c2.469333 0.138667 3.49414-0.825708 3.49414-1.984375 0-1.130666-0.890104-1.982422-3.023437-1.982422zm-0.025391 0.675782c1.132 0 1.580078 0.435541 1.580078 1.296875 0 0.881333-0.543776 1.390828-2.037109 1.298828l-0.3125-0.017578v-2.47461c0.144-0.046666 0.408198-0.103515 0.769531-0.103515z"/><path d="m538.1462 51.3764-1.148-3.065c-0.117-0.305-0.162-0.535-0.162-0.535h-0.019s-0.054 0.23-0.162 0.535l-1.112 3.065h-1.156l-0.696-4.781h0.967c9e-3 0.139 0.397 3.169 0.397 3.169 0.036 0.299 0.027 0.57 0.027 0.57h0.018s0.073-0.271 0.181-0.57c0 0 1.112-3.03 1.175-3.169h0.651c0.072 0.16 1.183 3.162 1.183 3.162 0.118 0.306 0.181 0.577 0.181 0.577h0.018s-9e-3 -0.278 0.027-0.577c0 0 0.389-3.044 0.398-3.162h1.084l-0.696 4.781z"/><path d="m540.6032 46.5954h3.027v0.59h-1.879v1.571h1.671v0.584h-1.671v1.446h1.879v0.59h-3.027z"/><path d="m547.8592 48.4924c0-0.278 0.027-0.507 0.027-0.507h-0.018s-0.127 0.215-0.335 0.486l-2.223 2.905h-1.084v-4.781h0.967v3.065c0 0.285-0.036 0.556-0.036 0.556h0.018s0.154-0.264 0.361-0.535l2.359-3.086h0.921v4.781h-0.957z"/><path d="m549.2862 51.3764v-0.59h1.157v-4.191h1.147v4.191h1.166v0.59z"/><path transform="matrix(.75000002 0 0 -.75000002 464.8824 63.0068)" d="m42.435547 25.472656-3.513672 8.154297h1.755859l0.84961-2.097656h3.419922l0.816406 2.097656h2.019531l-3.5-8.154297h-1.847656zm0.832031 1.328125h0.03125s0.046677 0.380375 0.277344 0.984375l1.09375 2.867188h-2.835938l1.140625-2.867188c0.246667-0.604 0.292969-0.984375 0.292969-0.984375z"/><path d="m503.9582 39.1814c0-0.514-0.416-0.792-0.94-0.792-0.515 0-0.949 0.278-0.949 0.792v3.385h-1.147v-3.392c0-0.868 0.831-1.466 2.051-1.466s2.051 0.598 2.051 1.466v3.392h-1.066z"/><path d="m505.4942 41.9754h1.156v-4.191h1.148v4.191h1.166v0.591h-3.47z"/><path d="m512.5332 40.5304h-1.961v2.036h-1.148v-4.782h1.148v2.162h1.961v-2.162h1.147v4.782h-1.147z"/><path transform="matrix(.75000002 0 0 -.75000002 464.8824 63.0068)" d="m69.027344 27.160156c-2.229334 0-3.121094 1.47325-3.121094 3.28125 0 1.816 0.89176 3.28125 3.121094 3.28125 2.228 0 3.107422-1.46525 3.107422-3.28125 0-1.808-0.879422-3.28125-3.107422-3.28125zm0 0.779297c1.276 0 1.554687 1.268844 1.554687 2.464844 0 1.186667-0.242687 2.447265-1.554687 2.447265-1.313334 0-1.566406-1.260598-1.566406-2.447265 0-1.196 0.289072-2.464844 1.566406-2.464844z"/><path transform="matrix(.75000002 0 0 -.75000002 464.8824 63.0068)" d="m75.267578 27.160156c-0.952 0-1.746958 0.158662-2.265625 0.361328v6.107422h1.507813v-2.890625h0.023437l2.349609 2.890625h1.699219l-2.470703-2.826172v-0.017578c1.313333-0.065333 2.216797-0.7235 2.216797-1.6875 0-1.196-1.000547-1.9375-3.060547-1.9375zm0 0.677735c1.12 0 1.566406 0.425739 1.566406 1.316406 0 0.852-0.578432 1.34375-1.759765 1.34375-0.228 0-0.468453-0.018875-0.564453-0.046875v-2.501953c0.18-0.064 0.432479-0.111328 0.757812-0.111328z"/><path d="m524.2962 37.7844h1.157v4.782h-1.157z"/><path d="m525.9412 41.9754h1.156v-4.191h1.148v4.191h1.165v0.591h-3.469z"/><path d="m532.2022 40.5854h-0.018l-1.066 1.981h-1.22l1.672-2.717v-2.065h1.147v2.065l1.69 2.717h-1.093z"/></g><path transform="matrix(.75000002 0 0 -.75000002 464.8824 63.0068)" d="m17.603516 0c-9.7213335 0-17.603516 7.9688752-17.603516 17.796875 0 9.828 7.8821825 17.794922 17.603516 17.794922 5.803999 0 10.951536-2.840703 14.158203-7.220703v5.105468h3.521484v-31.6093745h-3.521484v5.3535156c-3.206667-4.3799999-8.354204-7.2207031-14.158203-7.2207031zm-0.195313 3.3671875c7.849333 0 14.210938 6.443245 14.210938 14.3925785 0 7.947999-6.361605 14.392578-14.210938 14.392578-7.8479997 0-14.2109374-6.444579-14.2109374-14.392578 0-7.9493335 6.3629377-14.3925785 14.2109374-14.3925785z" fill="#ec1b2f"/><path transform="matrix(.75000002 0 0 -.75000002 464.8824 63.0068)" d="m6.5214844 8.5234375v13.3574215c0 2.369334 2.018099 4.316407 4.3847656 4.316407 2.374667 0 4.265625-1.564167 4.265625-3.9375v3.945312h4.896484v-4.089844l2.316407 0.035157c0.884 0 1.621166 0.840797 1.5625 1.716797l-0.007813 2.316406h4.992188v-3.228516c0-1.782666-1.388063-3.054687-3.164063-3.054687 1.782667 0 3.171875-1.578662 3.171875-3.361329l-0.007812-4.785156c0-1.7826664-1.234912-3.2304685-3.017579-3.2304685h-10.667968l-0.03711 11.2011715-2.404296-0.007812c-0.884 0-1.628907-0.629672-1.628907-1.513672v-9.6796875h-4.6542966zm15.9257816 2.2070315c0.900413 0 1.572265 0.578367 1.572265 1.453125v5.929687c0 0.874756-0.561857 1.511719-1.460937 1.511719h-2.539063v-8.886719l2.427735-0.007812z" fill="#ec1b2f" stroke="#ff1f20" stroke-width=".05"/></g></svg>
